<svg width="12" height="7" viewBox="0 0 12 7" fill="none" xmlns="http://www.w3.org/2000/svg">
<path fill-rule="evenodd" clip-rule="evenodd" d="M11.343 0.644497C11.5393 0.838676 11.5411 1.15525 11.3469 1.35159L6.4019 6.35159C6.20772 6.54793 5.89114 6.54968 5.6948 6.3555C5.49846 6.16132 5.49671 5.84475 5.69089 5.64841L10.6359 0.648408C10.8301 0.452068 11.1466 0.450317 11.343 0.644497ZM0.648342 0.653615C0.844645 0.4594 1.16122 0.461092 1.35544 0.657395L4.0288 3.3595C4.22302 3.5558 4.22132 3.87238 4.02502 4.06659C3.82872 4.26081 3.51214 4.25912 3.31792 4.06281L0.644561 1.36071C0.450346 1.16441 0.452039 0.847831 0.648342 0.653615Z" fill="#012555"/>
</svg>
