<svg id="Layer_1" data-name="Layer 1" xmlns="http://www.w3.org/2000/svg" viewBox="0 0 1169 158"><defs><style>.cls-1{fill:#393939;}.cls-2{fill:#0088d3;}</style></defs><title>TenTwenty-Logo-2017</title><path class="cls-1" d="M466.6,70.18h-9.86V54.37l11-.87,2.46-19.14h17.69V53.5h17.26V70.18H487.92V99c0,8.12,3.63,11.46,9.28,11.46A20.38,20.38,0,0,0,504,109l3.34,15.52a51.8,51.8,0,0,1-16,2.61c-17.84,0-24.8-11.17-24.8-27.84Z"/><path class="cls-1" d="M543.89,51.76c20.45,0,30.6,14.94,30.6,34.51a42.16,42.16,0,0,1-.87,9H530.55c1.89,10.88,9.14,15.66,18.71,15.66,5.37,0,10.3-1.6,15.52-4.79L571.88,119a47.06,47.06,0,0,1-25.52,8.12c-20.59,0-36.4-13.92-36.4-37.71,0-23.35,16.68-37.7,33.93-37.7m12.47,30.31c0-8.27-3.48-14.07-12-14.07-6.67,0-12.47,4.5-13.92,14.07Z"/><path class="cls-1" d="M585.66,53.5h17.4l1.45,9.14h.58c6.09-5.8,13.34-10.88,23.06-10.88,15.66,0,22.33,11,22.33,29v44.67H629.16V83.52c0-10.44-2.76-13.63-8.85-13.63-5.37,0-8.7,2.47-13.34,7v48.58H585.66Z"/><path class="cls-1" d="M667.88,70.18H658V54.37l11-.87,2.46-19.14H689.2V53.5h17.26V70.18H689.2V99c0,8.12,3.63,11.46,9.28,11.46a20.38,20.38,0,0,0,6.82-1.45l3.34,15.52a51.81,51.81,0,0,1-16,2.61c-17.84,0-24.8-11.17-24.8-27.84Z"/><path class="cls-1" d="M710.95,53.5h21.17l7,33.35c1.16,7.11,2,14.07,3.19,21.32h.58c1.31-7.25,2.47-14.5,4.21-21.32l8-33.35h18.42l8.12,33.35c1.74,7.11,3,14.07,4.49,21.32h.58c1.3-7.25,2-14.21,3.34-21.32L796.8,53.5h19.72l-17.26,71.93H774.32l-6.53-28.71c-1.45-6.67-2.61-13.34-3.91-21h-.58c-1.3,7.69-2.32,14.36-3.63,21l-6.38,28.71H728.93Z"/><path class="cls-1" d="M854.36,51.76c20.45,0,30.6,14.94,30.6,34.51a42.22,42.22,0,0,1-.87,9H841c1.89,10.88,9.14,15.66,18.71,15.66,5.37,0,10.3-1.6,15.52-4.79L882.35,119a47.05,47.05,0,0,1-25.52,8.12c-20.59,0-36.4-13.92-36.4-37.71,0-23.35,16.68-37.7,33.93-37.7m12.47,30.31c0-8.27-3.48-14.07-12-14.07-6.67,0-12.47,4.5-13.92,14.07Z"/><path class="cls-1" d="M896.13,53.5h17.4L915,62.63h.58c6.09-5.8,13.34-10.88,23.06-10.88,15.66,0,22.33,11,22.33,29v44.67H939.63V83.52c0-10.44-2.76-13.63-8.85-13.63-5.37,0-8.7,2.47-13.34,7v48.58H896.13Z"/><path class="cls-1" d="M978.35,70.18h-9.86V54.37l11-.87L982,34.36h17.69V53.5h17.26V70.18H999.67V99c0,8.12,3.62,11.46,9.28,11.46a20.38,20.38,0,0,0,6.82-1.45l3.34,15.52a51.81,51.81,0,0,1-16,2.61c-17.84,0-24.8-11.17-24.8-27.84Z"/><path class="cls-1" d="M1033.75,136.74c7.1,0,10.73-3.77,12.62-9.43l1-3.77-27.7-70h21.46l10.3,30.89c2,6.53,3.77,13.34,5.66,20.45h.58c1.59-6.82,3.19-13.63,4.93-20.45l8.7-30.89h20.45l-24.94,72.65c-6.81,18.13-14.5,27.41-31.47,27.41a32.76,32.76,0,0,1-10.15-1.45l3.77-16.24a23.42,23.42,0,0,0,4.79.87"/><polygon class="cls-2" points="1107.43 60.61 1117.71 42.5 1098.9 33.96 1102.91 21.42 1123.11 25.6 1125.38 5.05 1138.79 5.05 1141.05 25.78 1161.08 21.42 1165.26 33.96 1146.45 42.5 1156.73 60.61 1146.1 68.28 1132.17 52.77 1118.06 68.28 1107.43 60.61"/><path class="cls-1" d="M4.66,88.1a27.51,27.51,0,0,1,1.52-9.42,21.68,21.68,0,0,1,4.17-7.17A18.26,18.26,0,0,1,16.45,67a17.47,17.47,0,0,1,7.31-1.57,15.8,15.8,0,0,1,6.86,1.39,34.15,34.15,0,0,1,6.14,3.9l-.18-7.89V45.06h3.95v64.47H37.12L36.76,104H36.5a28.74,28.74,0,0,1-6.14,4.62,15.58,15.58,0,0,1-7.85,2,16.08,16.08,0,0,1-13-5.78Q4.66,99,4.66,88.1Zm4.21,0a30,30,0,0,0,.94,7.8,18,18,0,0,0,2.74,6A12.47,12.47,0,0,0,23,107.11a13.81,13.81,0,0,0,6.86-1.84A31.36,31.36,0,0,0,36.59,100V74.47a23.65,23.65,0,0,0-6.41-4.3A15.81,15.81,0,0,0,24,68.91a12.59,12.59,0,0,0-6,1.48,15.12,15.12,0,0,0-4.8,4A19.64,19.64,0,0,0,10,80.52,24.09,24.09,0,0,0,8.88,88.1Z"/><path class="cls-1" d="M48.51,88.1a27.1,27.1,0,0,1,1.57-9.5,21.78,21.78,0,0,1,4.21-7.13,18.85,18.85,0,0,1,6-4.48,16.27,16.27,0,0,1,6.95-1.57q7.71,0,12.11,5.2t4.39,14.71v1.61a7.45,7.45,0,0,1-.18,1.61h-31A25,25,0,0,0,53.8,96,17.69,17.69,0,0,0,57.07,102a14.91,14.91,0,0,0,5.07,3.86,15.4,15.4,0,0,0,6.64,1.39,18.33,18.33,0,0,0,6.32-1,20.62,20.62,0,0,0,5.25-2.83l1.61,3a53.15,53.15,0,0,1-5.69,2.87,19.79,19.79,0,0,1-7.85,1.34,19.84,19.84,0,0,1-7.76-1.52,18,18,0,0,1-6.32-4.44,21.44,21.44,0,0,1-4.26-7.08A26.72,26.72,0,0,1,48.51,88.1ZM80,85.5Q80,77.16,76.58,73a11.3,11.3,0,0,0-9.24-4.17A12.44,12.44,0,0,0,62,70a14.64,14.64,0,0,0-4.53,3.32,17.45,17.45,0,0,0-3.32,5.25,23.4,23.4,0,0,0-1.66,6.95Z"/><path class="cls-1" d="M84.38,66.49h4.3l9.68,27q1,3.14,2.15,6.28t2.15,6.1H103q1.08-3,2.2-6.1t2.2-6.28l9.68-27h4l-16,43h-4.66Z"/><path class="cls-1" d="M121.95,88.1a27.1,27.1,0,0,1,1.57-9.5,21.78,21.78,0,0,1,4.21-7.13,18.85,18.85,0,0,1,6-4.48,16.27,16.27,0,0,1,6.95-1.57q7.71,0,12.11,5.2t4.39,14.71v1.61a7.45,7.45,0,0,1-.18,1.61H126A25,25,0,0,0,127.24,96a17.69,17.69,0,0,0,3.27,5.92,14.91,14.91,0,0,0,5.07,3.86,15.4,15.4,0,0,0,6.64,1.39,18.33,18.33,0,0,0,6.32-1,20.62,20.62,0,0,0,5.25-2.83l1.61,3a53.15,53.15,0,0,1-5.69,2.87,21.93,21.93,0,0,1-15.6-.18,18,18,0,0,1-6.32-4.44,21.44,21.44,0,0,1-4.26-7.08A26.72,26.72,0,0,1,121.95,88.1Zm31.47-2.6q0-8.34-3.41-12.51a11.3,11.3,0,0,0-9.24-4.17A12.44,12.44,0,0,0,135.48,70,14.64,14.64,0,0,0,131,73.3a17.45,17.45,0,0,0-3.32,5.25A23.4,23.4,0,0,0,126,85.5Z"/><path class="cls-1" d="M163.91,45.06h3.95v59.27a3.36,3.36,0,0,0,.54,2.11,1.66,1.66,0,0,0,1.35.67h.58a4.81,4.81,0,0,0,1-.18l.72,3.23q-.63.18-1.25.31a7.93,7.93,0,0,1-1.61.13q-5.29,0-5.29-6.81Z"/><path class="cls-1" d="M176.64,88.1a27.76,27.76,0,0,1,1.57-9.64,21.18,21.18,0,0,1,4.21-7.13,18.21,18.21,0,0,1,13.5-5.92,18.52,18.52,0,0,1,7.4,1.52,18,18,0,0,1,6.19,4.39,21.23,21.23,0,0,1,4.21,7.13,27.78,27.78,0,0,1,1.57,9.64,27,27,0,0,1-1.57,9.55,21.37,21.37,0,0,1-4.21,7,18,18,0,0,1-6.19,4.39,18.54,18.54,0,0,1-7.4,1.52,18.21,18.21,0,0,1-13.5-5.92,21.33,21.33,0,0,1-4.21-7A27,27,0,0,1,176.64,88.1Zm4.12,0a24.27,24.27,0,0,0,1.17,7.71,19.12,19.12,0,0,0,3.18,6,14.31,14.31,0,0,0,4.8,3.9,13.24,13.24,0,0,0,6,1.39,13.52,13.52,0,0,0,6.05-1.39,14.18,14.18,0,0,0,4.84-3.9,19.18,19.18,0,0,0,3.18-6,24.32,24.32,0,0,0,1.17-7.71A24.62,24.62,0,0,0,210,80.3a19.76,19.76,0,0,0-3.18-6.05A14,14,0,0,0,202,70.3a13.52,13.52,0,0,0-6.05-1.39,13.24,13.24,0,0,0-6,1.39,14.11,14.11,0,0,0-4.8,3.95,19.7,19.7,0,0,0-3.18,6.05A24.57,24.57,0,0,0,180.77,88.1Z"/><path class="cls-1" d="M227.21,113.3V129h-3.95V66.49h3.41l.36,5.38h.27a43.79,43.79,0,0,1,6.86-4.48,16.35,16.35,0,0,1,7.76-2q8.61,0,12.91,6t4.3,16a29.16,29.16,0,0,1-1.52,9.77,22.07,22.07,0,0,1-4.17,7.31,18,18,0,0,1-6.1,4.57,17.27,17.27,0,0,1-7.22,1.57,15.83,15.83,0,0,1-6.28-1.39,33.8,33.8,0,0,1-6.63-3.9Zm0-11.75a27,27,0,0,0,7,4.3,16.09,16.09,0,0,0,5.74,1.26,12.9,12.9,0,0,0,6-1.43,13.94,13.94,0,0,0,4.75-4,20,20,0,0,0,3.09-6.23,27.13,27.13,0,0,0,1.12-8,33.68,33.68,0,0,0-.76-7.35,17.68,17.68,0,0,0-2.38-5.87,11.38,11.38,0,0,0-4.21-3.86,13.16,13.16,0,0,0-6.28-1.39,14.2,14.2,0,0,0-6.68,1.84,41.21,41.21,0,0,0-7.4,5.25Z"/><path class="cls-1" d="M263.53,88.1a27.1,27.1,0,0,1,1.57-9.5,21.78,21.78,0,0,1,4.21-7.13,18.85,18.85,0,0,1,6-4.48,16.27,16.27,0,0,1,6.95-1.57q7.71,0,12.11,5.2t4.39,14.71v1.61a7.45,7.45,0,0,1-.18,1.61h-31A25,25,0,0,0,268.82,96a17.69,17.69,0,0,0,3.27,5.92,14.91,14.91,0,0,0,5.07,3.86,15.4,15.4,0,0,0,6.64,1.39,18.33,18.33,0,0,0,6.32-1,20.62,20.62,0,0,0,5.25-2.83l1.61,3a53.15,53.15,0,0,1-5.69,2.87,21.93,21.93,0,0,1-15.6-.18,18,18,0,0,1-6.32-4.44,21.44,21.44,0,0,1-4.26-7.08A26.72,26.72,0,0,1,263.53,88.1ZM295,85.5q0-8.34-3.41-12.51a11.3,11.3,0,0,0-9.24-4.17A12.44,12.44,0,0,0,277.07,70a14.64,14.64,0,0,0-4.53,3.32,17.45,17.45,0,0,0-3.32,5.25,23.4,23.4,0,0,0-1.66,6.95Z"/><path class="cls-1" d="M301.9,88.1a27.51,27.51,0,0,1,1.52-9.42,21.68,21.68,0,0,1,4.17-7.17A18.26,18.26,0,0,1,313.7,67,17.47,17.47,0,0,1,321,65.41a15.8,15.8,0,0,1,6.86,1.39A34.15,34.15,0,0,1,334,70.7l-.18-7.89V45.06h3.95v64.47h-3.41L334,104h-.27a28.74,28.74,0,0,1-6.14,4.62,15.58,15.58,0,0,1-7.85,2,16.08,16.08,0,0,1-13-5.78Q301.9,99,301.9,88.1Zm4.21,0a30,30,0,0,0,.94,7.8,18,18,0,0,0,2.74,6,12.47,12.47,0,0,0,10.49,5.25,13.81,13.81,0,0,0,6.86-1.84,31.36,31.36,0,0,0,6.68-5.25V74.47a23.65,23.65,0,0,0-6.41-4.3,15.81,15.81,0,0,0-6.14-1.25,12.59,12.59,0,0,0-6,1.48,15.12,15.12,0,0,0-4.8,4,19.64,19.64,0,0,0-3.18,6.1A24.09,24.09,0,0,0,306.12,88.1Z"/><path class="cls-1" d="M362.25,45.06h3.95V63.71L366,72.14a39.68,39.68,0,0,1,7.08-4.75,16.61,16.61,0,0,1,7.8-2q8.61,0,12.91,6t4.3,16a29.16,29.16,0,0,1-1.52,9.77,22.07,22.07,0,0,1-4.17,7.31,18,18,0,0,1-6.1,4.57,17.27,17.27,0,0,1-7.22,1.57,17,17,0,0,1-6.5-1.39,28.31,28.31,0,0,1-6.41-3.72H366l-.45,4h-3.32Zm3.95,56.49a24,24,0,0,0,6.9,4.3,16.78,16.78,0,0,0,5.83,1.26,12.9,12.9,0,0,0,6-1.43,13.94,13.94,0,0,0,4.75-4,20,20,0,0,0,3.09-6.23,27.13,27.13,0,0,0,1.12-8,33.68,33.68,0,0,0-.76-7.35,17.68,17.68,0,0,0-2.38-5.87,11.38,11.38,0,0,0-4.21-3.86,13.16,13.16,0,0,0-6.28-1.39,14.46,14.46,0,0,0-6.72,1.84A38.11,38.11,0,0,0,366.19,76Z"/><path class="cls-1" d="M402.51,125.27a7.77,7.77,0,0,0,1.88.22,8.4,8.4,0,0,0,6.72-3.23,24.5,24.5,0,0,0,4.3-8.16l1.17-3.77L398.92,66.49h4.3l10.4,27.08q1,2.69,2.2,5.92t2.47,6.1h.36q1-2.87,2-6.1t1.93-5.92l9.24-27.08h4l-17,48.42a38.36,38.36,0,0,1-2.2,5.25,22.57,22.57,0,0,1-3,4.57,13.91,13.91,0,0,1-4,3.23,10.85,10.85,0,0,1-5.16,1.21,10.49,10.49,0,0,1-4.39-.9l.9-3.5A14.74,14.74,0,0,0,402.51,125.27Z"/></svg>