<svg width="18" height="16" viewBox="0 0 18 16" fill="none" xmlns="http://www.w3.org/2000/svg">
<path d="M8.76437 10.7555C8.76441 11.0316 8.9883 11.2555 9.26445 11.2554C9.28198 11.2554 9.29931 11.2545 9.31638 11.2527C9.42941 11.2429 9.53974 11.1947 9.62625 11.1082L13.6971 7.03729C13.8924 6.84202 13.8924 6.52544 13.6971 6.33018C13.5019 6.13492 13.1853 6.13492 12.99 6.33018L9.76418 9.55604L9.76288 1.43937C9.76283 1.16323 9.53894 0.939409 9.2628 0.939453C8.98665 0.939498 8.76283 1.16339 8.76288 1.43953L8.76437 10.7555Z" fill="#012555"/>
<path d="M6.96469 9.24383C7.15999 9.43905 7.47657 9.439 7.6718 9.2437C7.86702 9.0484 7.86697 8.73182 7.67167 8.53659L5.47086 6.33659C5.27556 6.14137 4.95897 6.14143 4.76375 6.33672C4.56852 6.53202 4.56858 6.8486 4.76388 7.04383L6.96469 9.24383Z" fill="#012555"/>
<path d="M0.792541 15.0974C1.17963 15.3658 1.66207 15.5 2.23987 15.5H15.7597C16.3375 15.5 16.82 15.3658 17.207 15.0974C17.5941 14.8291 17.7877 14.4946 17.7877 14.0939V12.4201C17.7877 12.2962 17.7277 12.1927 17.6078 12.1095C17.4879 12.0264 17.3386 11.9849 17.16 11.9849C16.9813 11.9849 16.832 12.0264 16.7121 12.1095C16.5922 12.1927 16.5323 12.2962 16.5323 12.4201V14.0939C16.5323 14.2278 16.4518 14.3506 16.2908 14.4622C16.1299 14.5738 15.9528 14.6296 15.7597 14.6296H2.23987C2.04675 14.6296 1.8697 14.5738 1.70874 14.4622C1.5478 14.3506 1.46732 14.2278 1.46732 14.0939V12.4201C1.46732 12.2962 1.40737 12.1927 1.28746 12.1095C1.16754 12.0264 1.01826 11.9849 0.839619 11.9849C0.660953 11.9849 0.511675 12.0264 0.391783 12.1095C0.27187 12.1927 0.211914 12.2962 0.211914 12.4201V14.0939C0.211914 14.4946 0.405457 14.8291 0.792541 15.0974Z" fill="#012555"/>
</svg>
