<svg width="14" height="14" viewBox="0 0 14 14" fill="none" xmlns="http://www.w3.org/2000/svg">
<g clip-path="url(#clip0_576_7237)">
<path d="M5.25526 10.0637C5.01364 10.0637 4.81776 10.2596 4.81776 10.5012C4.81776 10.7428 5.01364 10.9387 5.25526 10.9387H8.75526C8.99689 10.9387 9.19276 10.7428 9.19276 10.5012C9.19276 10.2596 8.99689 10.0637 8.75526 10.0637H5.25526Z" fill="white"/>
<path fill-rule="evenodd" clip-rule="evenodd" d="M7.00521 0.730469C6.58226 0.730469 6.19636 0.846618 5.77396 1.04378C5.36506 1.23463 4.89221 1.51631 4.29961 1.86933L3.4505 2.37514C2.79769 2.76401 2.2775 3.07388 1.88363 3.37019C1.47704 3.67608 1.17187 3.99107 0.973 4.40589C0.774033 4.82091 0.720107 5.25527 0.737405 5.76221C0.754148 6.2529 0.839988 6.84943 0.94762 7.59741L1.11816 8.78262C1.25664 9.74506 1.36652 10.5088 1.53069 11.1034C1.69993 11.7163 1.94004 12.2028 2.37334 12.5759C2.80628 12.9487 3.32428 13.1155 3.95808 13.195C4.57361 13.2721 5.35018 13.2721 6.32989 13.2721H7.68052C8.66022 13.2721 9.43681 13.2721 10.0523 13.195C10.6861 13.1155 11.2041 12.9487 11.6371 12.5759C12.0704 12.2028 12.3105 11.7163 12.4797 11.1034C12.6439 10.5088 12.7538 9.74507 12.8923 8.78263L13.0628 7.59738C13.1704 6.84943 13.2563 6.25289 13.273 5.76221C13.2903 5.25527 13.2364 4.82091 13.0374 4.40589C12.8386 3.99107 12.5334 3.67608 12.1268 3.37019C11.7329 3.07388 11.2127 2.76401 10.5599 2.37514L9.71081 1.86933C9.11821 1.51631 8.64536 1.23463 8.23646 1.04378C7.81406 0.846618 7.42816 0.730469 7.00521 0.730469ZM4.72763 2.63284C5.34451 2.26537 5.77976 2.00669 6.14404 1.83666C6.49935 1.67082 6.75481 1.60547 7.00521 1.60547C7.25561 1.60547 7.51107 1.67082 7.86638 1.83666C8.23066 2.00669 8.66591 2.26537 9.28279 2.63284L10.0906 3.11406C10.7698 3.51864 11.2491 3.80483 11.6007 4.06941C11.944 4.32766 12.132 4.54135 12.2484 4.78415C12.3647 5.02674 12.4131 5.30577 12.3985 5.73237C12.3836 6.16978 12.3052 6.71915 12.1931 7.49775L12.0305 8.62787C11.8867 9.62723 11.7839 10.3358 11.6363 10.8705C11.492 11.3931 11.3183 11.6958 11.0661 11.9129C10.8136 12.1303 10.4863 12.2587 9.94346 12.3268C9.38868 12.3963 8.66699 12.3971 7.65042 12.3971H6.36C5.34343 12.3971 4.62174 12.3963 4.06696 12.3268C3.52414 12.2587 3.19679 12.1303 2.94428 11.9129C2.69212 11.6958 2.51843 11.3931 2.37414 10.8705C2.22649 10.3358 2.1237 9.62722 1.97991 8.62787L1.81729 7.49775C1.70526 6.71915 1.62682 6.16978 1.6119 5.73237C1.59734 5.30577 1.64571 5.02674 1.76201 4.78415C1.87841 4.54135 2.0664 4.32766 2.40967 4.06941C2.76135 3.80483 3.24063 3.51864 3.91981 3.11406L4.72763 2.63284Z" fill="white"/>
</g>
<defs>
<clipPath id="clip0_576_7237">
<rect width="14" height="14" fill="white"/>
</clipPath>
</defs>
</svg>
