<svg width="24" height="24" viewBox="0 0 24 24" fill="none" xmlns="http://www.w3.org/2000/svg">
<mask id="mask0_3866_30725" style="mask-type:alpha" maskUnits="userSpaceOnUse" x="0" y="0" width="24" height="24">
<rect width="24" height="24" fill="#D9D9D9"/>
</mask>
<g mask="url(#mask0_3866_30725)">
<path d="M12.0019 11.7308C12.4471 11.7308 12.827 11.5723 13.1418 11.2552C13.4565 10.9382 13.6139 10.5571 13.6139 10.112C13.6139 9.66681 13.4554 9.28686 13.1384 8.97213C12.8214 8.65738 12.4403 8.5 11.9951 8.5C11.5499 8.5 11.17 8.65851 10.8552 8.97552C10.5405 9.29252 10.3831 9.67362 10.3831 10.1188C10.3831 10.564 10.5416 10.9439 10.8586 11.2587C11.1756 11.5734 11.5567 11.7308 12.0019 11.7308ZM11.9985 19.6769C13.878 18.041 15.3639 16.3772 16.4562 14.6856C17.5485 12.9939 18.0946 11.5308 18.0946 10.2962C18.0946 8.46667 17.5155 6.95673 16.3571 5.76635C15.1988 4.57597 13.7459 3.98078 11.9985 3.98078C10.2511 3.98078 8.79818 4.57597 7.63984 5.76635C6.48151 6.95673 5.90234 8.46667 5.90234 10.2962C5.90234 11.5308 6.44849 12.9939 7.54079 14.6856C8.63311 16.3772 10.119 18.041 11.9985 19.6769ZM11.9985 21.0192C9.64849 18.941 7.8783 17.0029 6.68792 15.2048C5.49754 13.4067 4.90234 11.7705 4.90234 10.2962C4.90234 8.18077 5.59113 6.43589 6.96869 5.06153C8.34624 3.68718 10.0228 3 11.9985 3C13.9741 3 15.6507 3.68718 17.0283 5.06153C18.4059 6.43589 19.0946 8.18077 19.0946 10.2962C19.0946 11.7705 18.4995 13.4067 17.3091 15.2048C16.1187 17.0029 14.3485 18.941 11.9985 21.0192Z" fill="black"/>
</g>
</svg>
