<svg width="375" height="375" viewBox="0 0 375 375" fill="none" xmlns="http://www.w3.org/2000/svg">
<g opacity="0.4" clip-path="url(#clip0_3686_21522)">
<circle cx="147.03" cy="24.7797" r="24.2797" stroke="white" stroke-dasharray="4 6"/>
<mask id="path-2-inside-1_3686_21522" fill="white">
<path d="M57.8203 57.8203H236.234V126.378H57.8203V57.8203Z"/>
</mask>
<path d="M57.8203 57.8203V56.8203H56.8203V57.8203H57.8203ZM236.234 57.8203H237.234V56.8203H236.234V57.8203ZM57.8203 58.8203H236.234V56.8203H57.8203V58.8203ZM235.234 57.8203V126.378H237.234V57.8203H235.234ZM58.8203 126.378V57.8203H56.8203V126.378H58.8203Z" fill="white" mask="url(#path-2-inside-1_3686_21522)"/>
<circle cx="24.7797" cy="24.7797" r="24.2797" transform="matrix(0 -1 -1 0 375 171.805)" stroke="white"/>
<mask id="path-5-inside-2_3686_21522" fill="white">
<path d="M317.18 236.23V57.8164H248.622V236.23H317.18Z"/>
</mask>
<path d="M317.18 236.23H317.68V236.73H317.18V236.23ZM317.18 57.8164V57.3164H317.68V57.8164H317.18ZM317.18 236.73H315.221V235.73H317.18V236.73ZM309.345 236.73H305.427V235.73H309.345V236.73ZM299.551 236.73H295.633V235.73H299.551V236.73ZM289.757 236.73H285.839V235.73H289.757V236.73ZM279.963 236.73H276.045V235.73H279.963V236.73ZM270.169 236.73H266.251V235.73H270.169V236.73ZM260.375 236.73H256.458V235.73H260.375V236.73ZM250.581 236.73H248.622V235.73H250.581V236.73ZM248.622 57.3164H250.581V58.3164H248.622V57.3164ZM256.458 57.3164H260.375V58.3164H256.458V57.3164ZM266.251 57.3164H270.169V58.3164H266.251V57.3164ZM276.045 57.3164H279.963V58.3164H276.045V57.3164ZM285.839 57.3164H289.757V58.3164H285.839V57.3164ZM295.633 57.3164H299.551V58.3164H295.633V57.3164ZM305.427 57.3164H309.345V58.3164H305.427V57.3164ZM315.221 57.3164H317.18V58.3164H315.221V57.3164ZM317.68 57.8164V59.7988H316.68V57.8164H317.68ZM317.68 65.7459V69.7107H316.68V65.7459H317.68ZM317.68 75.6578V79.6226H316.68V75.6578H317.68ZM317.68 85.5697V89.5345H316.68V85.5697H317.68ZM317.68 95.4816V99.4464H316.68V95.4816H317.68ZM317.68 105.393V109.358H316.68V105.393H317.68ZM317.68 115.305V119.27H316.68V115.305H317.68ZM317.68 125.217V129.182H316.68V125.217H317.68ZM317.68 135.129V139.094H316.68V135.129H317.68ZM317.68 145.041V149.006H316.68V145.041H317.68ZM317.68 154.953V158.918H316.68V154.953H317.68ZM317.68 164.865V168.83H316.68V164.865H317.68ZM317.68 174.777V178.741H316.68V174.777H317.68ZM317.68 184.689V188.653H316.68V184.689H317.68ZM317.68 194.601V198.565H316.68V194.601H317.68ZM317.68 204.512V208.477H316.68V204.512H317.68ZM317.68 214.424V218.389H316.68V214.424H317.68ZM317.68 224.336V228.301H316.68V224.336H317.68ZM317.68 234.248V236.23H316.68V234.248H317.68ZM317.18 236.23H318.18V237.23H317.18V236.23ZM317.18 57.8164V56.8164H318.18V57.8164H317.18ZM317.18 237.23H315.221V235.23H317.18V237.23ZM309.345 237.23H305.427V235.23H309.345V237.23ZM299.551 237.23H295.633V235.23H299.551V237.23ZM289.757 237.23H285.839V235.23H289.757V237.23ZM279.963 237.23H276.045V235.23H279.963V237.23ZM270.169 237.23H266.251V235.23H270.169V237.23ZM260.375 237.23H256.458V235.23H260.375V237.23ZM250.581 237.23H248.622V235.23H250.581V237.23ZM248.622 56.8164H250.581V58.8164H248.622V56.8164ZM256.458 56.8164H260.375V58.8164H256.458V56.8164ZM266.251 56.8164H270.169V58.8164H266.251V56.8164ZM276.045 56.8164H279.963V58.8164H276.045V56.8164ZM285.839 56.8164H289.757V58.8164H285.839V56.8164ZM295.633 56.8164H299.551V58.8164H295.633V56.8164ZM305.427 56.8164H309.345V58.8164H305.427V56.8164ZM315.221 56.8164H317.18V58.8164H315.221V56.8164ZM318.18 57.8164V59.7988H316.18V57.8164H318.18ZM318.18 65.7459V69.7107H316.18V65.7459H318.18ZM318.18 75.6578V79.6226H316.18V75.6578H318.18ZM318.18 85.5697V89.5345H316.18V85.5697H318.18ZM318.18 95.4816V99.4464H316.18V95.4816H318.18ZM318.18 105.393V109.358H316.18V105.393H318.18ZM318.18 115.305V119.27H316.18V115.305H318.18ZM318.18 125.217V129.182H316.18V125.217H318.18ZM318.18 135.129V139.094H316.18V135.129H318.18ZM318.18 145.041V149.006H316.18V145.041H318.18ZM318.18 154.953V158.918H316.18V154.953H318.18ZM318.18 164.865V168.83H316.18V164.865H318.18ZM318.18 174.777V178.741H316.18V174.777H318.18ZM318.18 184.689V188.653H316.18V184.689H318.18ZM318.18 194.601V198.565H316.18V194.601H318.18ZM318.18 204.512V208.477H316.18V204.512H318.18ZM318.18 214.424V218.389H316.18V214.424H318.18ZM318.18 224.336V228.301H316.18V224.336H318.18ZM318.18 234.248V236.23H316.18V234.248H318.18Z" fill="white" mask="url(#path-5-inside-2_3686_21522)"/>
<circle cx="24.7797" cy="227.972" r="24.2797" transform="rotate(-90 24.7797 227.972)" stroke="white"/>
<mask id="path-8-inside-3_3686_21522" fill="white">
<path d="M57.8203 317.18L57.8203 138.766H126.378L126.378 317.18H57.8203Z"/>
</mask>
<path d="M57.8203 317.18H57.3203V317.68H57.8203V317.18ZM57.8203 138.766V138.266H57.3203V138.766H57.8203ZM57.8203 317.68H59.7791V316.68H57.8203V317.68ZM65.6554 317.68H69.573V316.68H65.6554V317.68ZM75.4493 317.68H79.3669V316.68H75.4493V317.68ZM85.2432 317.68H89.1608V316.68H85.2432V317.68ZM95.0371 317.68H98.9547V316.68H95.0371V317.68ZM104.831 317.68H108.749V316.68H104.831V317.68ZM114.625 317.68H118.542V316.68H114.625V317.68ZM124.419 317.68H126.378V316.68H124.419V317.68ZM126.378 138.266H124.419V139.266H126.378V138.266ZM118.542 138.266H114.625V139.266H118.542V138.266ZM108.749 138.266H104.831V139.266H108.749V138.266ZM98.9547 138.266H95.0371V139.266H98.9547V138.266ZM89.1608 138.266H85.2432V139.266H89.1608V138.266ZM79.3669 138.266H75.4493V139.266H79.3669V138.266ZM69.573 138.266H65.6554V139.266H69.573V138.266ZM59.7791 138.266H57.8203V139.266H59.7791V138.266ZM57.3203 138.766V140.748H58.3203V138.766H57.3203ZM57.3203 146.695V150.66H58.3203V146.695H57.3203ZM57.3203 156.607V160.572H58.3203V156.607H57.3203ZM57.3203 166.519V170.484H58.3203V166.519H57.3203ZM57.3203 176.431V180.396H58.3203V176.431H57.3203ZM57.3203 186.343V190.307H58.3203V186.343H57.3203ZM57.3203 196.255V200.219H58.3203V196.255H57.3203ZM57.3203 206.166V210.131H58.3203V206.166H57.3203ZM57.3203 216.078V220.043H58.3203V216.078H57.3203ZM57.3203 225.99V229.955H58.3203V225.99H57.3203ZM57.3203 235.902V239.867H58.3203V235.902H57.3203ZM57.3203 245.814V249.779H58.3203V245.814H57.3203ZM57.3203 255.726L57.3203 259.691H58.3203L58.3203 255.726H57.3203ZM57.3203 265.638V269.603H58.3203V265.638H57.3203ZM57.3203 275.55V279.515H58.3203V275.55H57.3203ZM57.3203 285.462V289.426H58.3203V285.462H57.3203ZM57.3203 295.374V299.338H58.3203V295.374H57.3203ZM57.3203 305.285V309.25H58.3203V305.285H57.3203ZM57.3203 315.197V317.18H58.3203V315.197H57.3203ZM57.8203 317.18H56.8203V318.18H57.8203V317.18ZM57.8203 138.766V137.766H56.8203V138.766H57.8203ZM57.8203 318.18H59.7791V316.18H57.8203V318.18ZM65.6554 318.18H69.573V316.18H65.6554V318.18ZM75.4493 318.18H79.3669V316.18H75.4493V318.18ZM85.2432 318.18H89.1608V316.18H85.2432V318.18ZM95.0371 318.18H98.9547V316.18H95.0371V318.18ZM104.831 318.18H108.749V316.18H104.831V318.18ZM114.625 318.18H118.542V316.18H114.625V318.18ZM124.419 318.18H126.378V316.18H124.419V318.18ZM126.378 137.766H124.419V139.766H126.378V137.766ZM118.542 137.766H114.625V139.766H118.542V137.766ZM108.749 137.766H104.831V139.766H108.749V137.766ZM98.9547 137.766H95.0371V139.766H98.9547V137.766ZM89.1608 137.766H85.2432V139.766H89.1608V137.766ZM79.3669 137.766H75.4493V139.766H79.3669V137.766ZM69.573 137.766H65.6554V139.766H69.573V137.766ZM59.7791 137.766H57.8203V139.766H59.7791V137.766ZM56.8203 138.766V140.748H58.8203V138.766H56.8203ZM56.8203 146.695V150.66H58.8203V146.695H56.8203ZM56.8203 156.607V160.572H58.8203V156.607H56.8203ZM56.8203 166.519V170.484H58.8203V166.519H56.8203ZM56.8203 176.431V180.396H58.8203V176.431H56.8203ZM56.8203 186.343V190.307H58.8203V186.343H56.8203ZM56.8203 196.255V200.219H58.8203V196.255H56.8203ZM56.8203 206.166V210.131H58.8203V206.166H56.8203ZM56.8203 216.078V220.043H58.8203V216.078H56.8203ZM56.8203 225.99V229.955H58.8203V225.99H56.8203ZM56.8203 235.902V239.867H58.8203V235.902H56.8203ZM56.8203 245.814V249.779H58.8203V245.814H56.8203ZM56.8203 255.726L56.8203 259.691H58.8203L58.8203 255.726H56.8203ZM56.8203 265.638V269.603H58.8203V265.638H56.8203ZM56.8203 275.55V279.515H58.8203V275.55H56.8203ZM56.8203 285.462V289.426H58.8203V285.462H56.8203ZM56.8203 295.374V299.338H58.8203V295.374H56.8203ZM56.8203 305.285V309.25H58.8203V305.285H56.8203ZM56.8203 315.197V317.18H58.8203V315.197H56.8203Z" fill="white" mask="url(#path-8-inside-3_3686_21522)"/>
<circle cx="24.7797" cy="24.7797" r="24.2797" transform="matrix(1 0 0 -1 201.543 375)" stroke="white" stroke-dasharray="4 6"/>
<mask id="path-11-inside-4_3686_21522" fill="white">
<path d="M137.113 317.18H315.527V248.622H137.113V317.18Z"/>
</mask>
<path d="M137.113 317.18V318.18H136.113V317.18H137.113ZM315.527 317.18H316.527V318.18H315.527V317.18ZM137.113 316.18H315.527V318.18H137.113V316.18ZM314.527 317.18V248.622H316.527V317.18H314.527ZM138.113 248.622V317.18H136.113V248.622H138.113Z" fill="white" mask="url(#path-11-inside-4_3686_21522)"/>
</g>
<defs>
<clipPath id="clip0_3686_21522">
<rect width="375" height="375" fill="white"/>
</clipPath>
</defs>
</svg>
