<svg width="135" height="38" viewBox="0 0 135 38" fill="none" xmlns="http://www.w3.org/2000/svg">
<g clip-path="url(#clip0_455_7189)">
<path d="M78.6707 29.748H77.7422V37.7048H78.6707V29.748Z" fill="white"/>
<path d="M79.8984 37.7044V29.4292L85.6402 35.7934V29.7477H86.5276V37.9998L80.7917 31.7224V37.7044H79.8984Z" fill="white"/>
<path d="M88.6825 36.7955H89.2761C90.2458 36.7955 90.9099 36.7608 91.286 36.6681C91.6562 36.5813 91.9677 36.4365 92.2087 36.2396C92.5378 35.9616 92.7728 35.6084 92.9433 35.1856C93.1137 34.7571 93.2019 34.2649 93.2019 33.709C93.2019 33.153 93.1137 32.6666 92.9492 32.2439C92.7787 31.8211 92.5378 31.4737 92.2087 31.2073C91.9677 30.993 91.6445 30.8367 91.2684 30.7498C90.8922 30.6629 90.2281 30.6224 89.2761 30.6224H88.6825V36.8013V36.7955ZM87.7422 37.6989V29.7422H89.2526C90.3633 29.7422 91.1508 29.7943 91.6033 29.9101C92.0559 30.0202 92.4496 30.2113 92.8022 30.4776C93.2548 30.8309 93.5897 31.2768 93.8248 31.8269C94.054 32.3713 94.1716 33.0025 94.1716 33.7148C94.1716 34.427 94.054 35.0582 93.8248 35.6026C93.5897 36.1527 93.2548 36.6044 92.8022 36.9519C92.4496 37.2241 92.0735 37.4152 91.6327 37.5252C91.1919 37.6352 90.5102 37.6989 89.5934 37.6989H87.7481H87.7422Z" fill="white"/>
<path d="M95.3828 29.748H96.329V34.6935C96.329 35.5042 96.4994 36.0891 96.8344 36.4597C97.1753 36.8419 97.7042 37.033 98.4271 37.033C99.1499 37.033 99.6789 36.8419 100.02 36.4597C100.355 36.0891 100.525 35.5042 100.525 34.6935V29.748H101.471V34.6935C101.471 35.7706 101.219 36.5813 100.707 37.1141C100.202 37.6526 99.4379 37.919 98.4271 37.919C97.4162 37.919 96.6464 37.6526 96.1468 37.1141C95.6414 36.5813 95.3887 35.7706 95.3887 34.6935V29.748H95.3828Z" fill="white"/>
<path d="M106.055 33.2803C106.555 33.5061 106.948 33.7899 107.207 34.1605C107.465 34.5311 107.589 34.9654 107.589 35.4692C107.589 36.1989 107.366 36.7838 106.907 37.2297C106.449 37.6814 105.843 37.9072 105.085 37.9072C104.468 37.9072 103.951 37.7509 103.528 37.4266C103.117 37.1081 102.829 36.6448 102.688 36.0541L103.528 35.6314C103.651 36.112 103.834 36.4826 104.098 36.7201C104.357 36.9691 104.686 37.0965 105.085 37.0965C105.55 37.0965 105.926 36.9575 106.22 36.6853C106.508 36.4074 106.654 36.0541 106.654 35.614C106.654 35.255 106.555 34.9481 106.349 34.6875C106.143 34.4269 105.843 34.2068 105.432 34.0273L104.486 33.6161C103.963 33.3845 103.575 33.1065 103.322 32.7591C103.064 32.4116 102.94 31.9947 102.94 31.514C102.94 30.9581 103.146 30.4833 103.557 30.1126C103.975 29.742 104.503 29.5625 105.144 29.5625C105.614 29.5625 106.02 29.6609 106.366 29.8636C106.713 30.0605 106.978 30.3616 107.166 30.7554L106.402 31.2534C106.225 30.9465 106.026 30.7207 105.808 30.5643C105.591 30.4196 105.344 30.3443 105.074 30.3443C104.727 30.3443 104.439 30.4427 104.216 30.6628C103.998 30.877 103.886 31.1608 103.886 31.4909C103.886 31.7804 103.963 32.0294 104.139 32.2321C104.31 32.4406 104.574 32.6201 104.938 32.7765L106.055 33.2803Z" fill="white"/>
<path d="M111.028 37.7048V30.6398H108.812V29.748H114.184V30.6398H111.968V37.7048H111.028Z" fill="white"/>
<path d="M116.315 30.5472V33.2052H117.015C117.749 33.2052 118.225 33.1068 118.472 32.9215C118.719 32.7304 118.836 32.3945 118.836 31.9196C118.836 31.4158 118.719 31.051 118.466 30.8483C118.213 30.6398 117.732 30.5472 117.015 30.5472H116.315ZM115.398 37.7048V29.748H117.25C117.767 29.748 118.155 29.777 118.396 29.8349C118.643 29.8928 118.854 29.9913 119.036 30.1418C119.271 30.3213 119.454 30.5704 119.577 30.8773C119.706 31.1958 119.771 31.5374 119.771 31.9081C119.771 32.5682 119.589 33.0547 119.23 33.3963C118.878 33.738 118.349 33.9001 117.661 33.9001H117.497L120.482 37.699H119.301L116.445 33.9001H116.315V37.699H115.398V37.7048Z" fill="white"/>
<path d="M122.638 29.748H121.703V37.7048H122.638V29.748Z" fill="white"/>
<path d="M123.852 37.7048V29.748H127.989V30.6167H124.774V32.8925H127.989V33.7727H124.774V36.813H127.989V37.7048H123.852Z" fill="white"/>
<path d="M132.576 33.2803C133.082 33.5061 133.47 33.7899 133.722 34.1605C133.987 34.5311 134.116 34.9654 134.116 35.4692C134.116 36.1989 133.881 36.7838 133.423 37.2297C132.964 37.6814 132.359 37.9072 131.601 37.9072C130.99 37.9072 130.473 37.7509 130.055 37.4266C129.632 37.1081 129.35 36.6448 129.203 36.0541L130.055 35.6314C130.167 36.112 130.349 36.4826 130.614 36.7201C130.878 36.9691 131.213 37.0965 131.601 37.0965C132.071 37.0965 132.447 36.9575 132.735 36.6853C133.029 36.4074 133.17 36.0541 133.17 35.614C133.17 35.255 133.064 34.9481 132.87 34.6875C132.671 34.4269 132.359 34.2068 131.959 34.0273L131.007 33.6161C130.484 33.3845 130.096 33.1065 129.844 32.7591C129.585 32.4116 129.456 31.9947 129.456 31.514C129.456 30.9581 129.667 30.4833 130.079 30.1126C130.496 29.742 131.019 29.5625 131.66 29.5625C132.136 29.5625 132.541 29.6609 132.888 29.8636C133.235 30.0605 133.493 30.3616 133.693 30.7554L132.911 31.2534C132.747 30.9465 132.553 30.7207 132.336 30.5643C132.118 30.4196 131.865 30.3443 131.601 30.3443C131.248 30.3443 130.96 30.4427 130.737 30.6628C130.514 30.877 130.402 31.1608 130.402 31.4909C130.402 31.7804 130.49 32.0294 130.661 32.2321C130.831 32.4406 131.09 32.6201 131.448 32.7765L132.576 33.2803Z" fill="white"/>
<path d="M0 37.6989V29.7422H5.24811V31.9022H2.83269V32.8172H5.01891V34.8556H2.83269V37.6989H0Z" fill="white"/>
<path d="M6.50781 34.0506V29.7422H9.31699V34.0854C9.31699 34.5776 9.37576 34.9308 9.4933 35.1162C9.61084 35.313 9.81653 35.4115 10.0986 35.4115C10.3807 35.4115 10.5864 35.3131 10.7039 35.1104C10.8274 34.9135 10.892 34.566 10.892 34.0854V29.7422H13.7071V34.0506C13.7071 34.6181 13.6659 35.0872 13.5954 35.4578C13.5249 35.8227 13.4015 36.1296 13.2428 36.3728C12.9313 36.865 12.4964 37.2472 11.9557 37.5136C11.4151 37.7742 10.8039 37.9132 10.0986 37.9132C9.39339 37.9132 8.78219 37.7742 8.23563 37.5136C7.68908 37.2472 7.26594 36.865 6.96034 36.3728C6.79578 36.1296 6.67824 35.8284 6.6136 35.4694C6.5372 35.0988 6.50781 34.6297 6.50781 34.0506Z" fill="white"/>
<path d="M16.5301 37.6989V32.3481H14.9609V29.7422H20.9202V32.3481H19.351V37.6989H16.5301Z" fill="white"/>
<path d="M22.1875 34.0506V29.7422H24.9967V34.0854C24.9967 34.5776 25.0613 34.9308 25.1789 35.1162C25.2964 35.313 25.4962 35.4115 25.7842 35.4115C26.0722 35.4115 26.2661 35.3131 26.3895 35.1104C26.5071 34.9135 26.5658 34.566 26.5658 34.0854V29.7422H29.3809V34.0506C29.3809 34.6181 29.3456 35.0872 29.2692 35.4578C29.1987 35.8227 29.0812 36.1296 28.9166 36.3728C28.6051 36.865 28.1761 37.2472 27.6354 37.5136C27.0947 37.7742 26.4777 37.9132 25.7783 37.9132C25.079 37.9132 24.4619 37.7742 23.9212 37.5136C23.3746 37.2472 22.9456 36.865 22.64 36.3728C22.4813 36.1296 22.3638 35.8284 22.2874 35.4694C22.2228 35.0988 22.1875 34.6297 22.1875 34.0506Z" fill="white"/>
<path d="M33.4204 31.7806V33.3499H33.8494C34.1139 33.3499 34.3196 33.2804 34.4606 33.1472C34.6017 33.0083 34.6781 32.8287 34.6781 32.5682C34.6781 32.3076 34.6076 32.128 34.4606 31.9833C34.3196 31.8559 34.1139 31.7806 33.8494 31.7806H33.4204ZM30.6406 37.6989V29.7422H34.1785C35.207 29.7422 35.9945 29.968 36.5411 30.4313C37.0818 30.8946 37.358 31.5547 37.358 32.4292C37.358 32.9909 37.2169 33.4542 36.9466 33.819C36.6704 34.1896 36.306 34.4039 35.8358 34.4676L37.9398 37.6989H34.7604L33.4204 35.0756V37.6989H30.6406Z" fill="white"/>
<path d="M39.1953 37.6989V29.7422H44.4434V31.9022H41.9692V32.655H44.2142V34.6934H41.9692V35.5331H44.5081V37.6989H39.1953Z" fill="white"/>
<path d="M51.1452 31.9601V33.2804H51.5918C51.8622 33.2804 52.0679 33.2225 52.2089 33.1125C52.35 32.9909 52.4205 32.8403 52.4205 32.6261C52.4205 32.4118 52.35 32.2554 52.203 32.1396C52.0561 32.0238 51.8504 31.9659 51.5918 31.9659H51.1452V31.9601ZM48.3125 37.6989V29.7422H51.6859C52.873 29.7422 53.7369 29.9738 54.2835 30.4371C54.8359 30.9004 55.1062 31.6358 55.1062 32.6434C55.1062 33.5758 54.8594 34.2649 54.3716 34.6992C53.8838 35.1219 53.0963 35.3478 52.0208 35.3478H51.1393V37.6989H48.3125Z" fill="white"/>
<path d="M59.2742 29.7422H56.4062V37.6989H59.2742V29.7422Z" fill="white"/>
<path d="M63.4011 31.9601V33.2804H63.836C64.1063 33.2804 64.312 33.2225 64.4589 33.1125C64.6 32.9909 64.6764 32.8403 64.6764 32.6261C64.6764 32.4118 64.6058 32.2554 64.453 32.1396C64.312 32.0238 64.1004 31.9659 63.836 31.9659H63.4011V31.9601ZM60.5625 37.6989V29.7422H63.9359C65.123 29.7422 65.9869 29.9738 66.5393 30.4371C67.0918 30.9004 67.3621 31.6358 67.3621 32.6434C67.3621 33.5758 67.1153 34.2649 66.6216 34.6992C66.128 35.1219 65.3463 35.3478 64.2767 35.3478H63.3893V37.6989H60.5625Z" fill="white"/>
<path d="M68.6484 37.6989V29.7422H73.9024V31.9022H71.4224V32.655H73.6732V34.6934H71.4224V35.5331H73.9612V37.6989H68.6484Z" fill="white"/>
<path d="M0.015625 8.32734V25.1326H9.0426V17.9576H16.5533V10.7653H9.03085C9.03085 7.60348 9.74196 7.11704 13.2681 7.11704L16.6297 7.10546V0H8.89568C3.84151 0 0.015625 4.25632 0.015625 8.32734Z" fill="white"/>
<path d="M43.1234 11.1997C42.7062 14.1415 40.5258 17.4076 37.1172 18.8958V25.1327H46.0854V11.1997H43.1234Z" fill="white"/>
<path d="M32.1088 10.7595H27.519V7.14599H32.626C34.2833 7.14599 35.0943 10.6785 32.1088 10.7595ZM32.2734 0H18.5625V25.1384H27.519V17.9634H34.0717C37.6508 17.3438 40.1896 15.0738 41.1652 11.7382C42.7285 4.76592 38.5441 0.144773 32.2734 0Z" fill="white"/>
<path d="M42.2389 9.7634C44.8483 9.7634 47.0168 7.56285 47.0168 4.9164C47.0168 2.26995 44.8483 0.0751953 42.2389 0.0751953C39.6295 0.0751953 37.4609 2.26995 37.4609 4.91061C37.4609 7.55127 39.6295 9.75761 42.2389 9.75761" fill="#FB9E3F"/>
</g>
<defs>
<clipPath id="clip0_455_7189">
<rect width="134.118" height="38" fill="white"/>
</clipPath>
</defs>
</svg>
