<svg width="140" height="76" viewBox="0 0 140 76" fill="none" xmlns="http://www.w3.org/2000/svg">
<path d="M0 25.1758V75.9825H26.8902V54.2907H49.2636V32.5464H26.8551C26.8551 22.9873 28.9734 21.5167 39.4774 21.5167L49.4912 21.4817V0H26.4525C11.3968 0 0 12.868 0 25.1758Z" fill="white"/>
<path d="M128.411 33.8596C127.168 42.7534 120.673 52.6276 110.519 57.127V75.9826H137.234V33.8596H128.411Z" fill="white"/>
<path d="M95.5858 32.5289H81.9131V21.6042H97.1264C102.063 21.6042 104.479 32.2838 95.5858 32.5289ZM96.076 0H55.233V76H81.9131V54.3082H101.433C112.095 52.4349 119.657 45.572 122.563 35.4877C127.22 14.4087 114.756 0.437687 96.076 0Z" fill="white"/>
<path d="M125.767 29.5178C133.54 29.5178 140 22.8649 140 14.864C140 6.86307 133.54 0.227729 125.767 0.227729C117.994 0.227729 111.534 6.86307 111.534 14.8465C111.534 22.8299 117.994 29.5003 125.767 29.5003" fill="#FB9E3F"/>
</svg>
