<svg width="60" height="60" viewBox="0 0 60 60" fill="none" xmlns="http://www.w3.org/2000/svg">
<rect width="60" height="60" rx="30" fill="#012555"/>
<path d="M16 27.4689V37.4965H21.3779V33.2153H25.8524V28.9236H21.3709C21.3709 27.037 21.7945 26.7467 23.8952 26.7467L25.8979 26.7398V22.5H21.2903C18.2793 22.5 16 25.0397 16 27.4689Z" fill="white"/>
<path d="M41.6818 29.1826C41.4332 30.938 40.1342 32.8868 38.1035 33.7749V37.4964H43.4464V29.1826H41.6818Z" fill="white"/>
<path d="M35.1162 28.9202H32.3818V26.764H35.4243C36.4117 26.764 36.8948 28.8718 35.1162 28.9202ZM35.2142 22.5H27.0459V37.5H32.3818V33.2187H36.2856C38.4179 32.849 39.9304 31.4945 40.5116 29.5041C41.4429 25.3438 38.95 22.5864 35.2142 22.5Z" fill="white"/>
<path d="M41.1536 28.3258C42.7082 28.3258 44.0001 27.0128 44.0001 25.4337C44.0001 23.8545 42.7082 22.5449 41.1536 22.5449C39.5991 22.5449 38.3071 23.8545 38.3071 25.4302C38.3071 27.0059 39.5991 28.3224 41.1536 28.3224" fill="#FB9E3F"/>
</svg>
