<svg width="40" height="40" viewBox="0 0 40 40" fill="none" xmlns="http://www.w3.org/2000/svg">
<g opacity="0.5">
<rect width="40" height="40" rx="20" fill="#012555"/>
<path d="M10.6665 18.3126V24.9977H14.2518V22.1435H17.2348V19.2824H14.2471C14.2471 18.0246 14.5295 17.8311 15.93 17.8311L17.2651 17.8265V15H14.1934C12.186 15 10.6665 16.6932 10.6665 18.3126Z" fill="white"/>
<path d="M27.7878 19.4551C27.6221 20.6253 26.7561 21.9246 25.4023 22.5166V24.9976H28.9643V19.4551H27.7878Z" fill="white"/>
<path d="M23.4105 19.2801H21.5875V17.8427H23.6159C24.2741 17.8427 24.5962 19.2479 23.4105 19.2801ZM23.4758 15H18.0303V25H21.5875V22.1458H24.1901C25.6116 21.8993 26.6199 20.9963 27.0074 19.6694C27.6283 16.8959 25.9664 15.0576 23.4758 15Z" fill="white"/>
<path d="M27.4357 18.8842C28.4721 18.8842 29.3334 18.0089 29.3334 16.9561C29.3334 15.9033 28.4721 15.0303 27.4357 15.0303C26.3994 15.0303 25.5381 15.9033 25.5381 16.9538C25.5381 18.0042 26.3994 18.8819 27.4357 18.8819" fill="#FB9E3F"/>
</g>
</svg>
