<svg width="42" height="43" viewBox="0 0 42 43" fill="none" xmlns="http://www.w3.org/2000/svg">
<path d="M8.81491 41.3626C7.0847 41.3832 5.66717 40.0067 5.64633 38.3015C5.64633 38.281 5.64633 38.2604 5.64633 38.2399V5.73861C5.62548 4.03342 7.02216 2.6364 8.75237 2.61586C8.77322 2.61586 8.79406 2.61586 8.81491 2.61586H28.3476C29.0146 2.59531 29.6817 2.88293 30.1195 3.376L36.5817 9.74477C37.0612 10.1968 37.3322 10.8336 37.3322 11.4911V38.2399C37.353 39.9451 35.9563 41.3421 34.2261 41.3626C34.2053 41.3626 34.1844 41.3626 34.1636 41.3626H8.81491Z" fill="white"/>
<path d="M28.3475 3.23218C28.8478 3.21163 29.3481 3.41708 29.6816 3.78688L36.1438 10.1557C36.5191 10.5049 36.7067 10.9774 36.7067 11.4705V38.2193C36.7067 39.5958 35.5602 40.7258 34.1635 40.7258H8.81481C7.41813 40.7258 6.2716 39.5958 6.2716 38.2193V5.7386C6.2716 4.36212 7.41813 3.25272 8.81481 3.25272H28.3475M28.3475 1.99951H8.81481C6.70937 1.99951 5.02085 3.68416 5 5.7386V38.2399C5 40.3149 6.70937 41.979 8.81481 41.9995H34.1843C36.2898 41.9995 37.9783 40.3149 37.9991 38.2399V11.491C38.02 10.6693 37.6656 9.86803 37.0402 9.31333L30.578 2.94456C29.9943 2.32822 29.2021 1.99951 28.3475 1.99951Z" fill="#FF2116"/>
<path d="M29.2858 20.0168C28.9939 19.7497 28.6187 19.5443 28.2226 19.4621C27.6598 19.3183 27.0761 19.2567 26.4924 19.2567C26.0963 19.2567 25.6794 19.2772 25.2833 19.3183C24.8664 19.3594 24.4078 19.421 23.9492 19.5032C23.6782 19.2567 23.4072 18.969 23.1362 18.6814C22.8652 18.3938 22.6151 18.0651 22.3441 17.7158C22.1773 17.4693 21.9897 17.2228 21.8229 16.9557C21.6561 16.7091 21.4894 16.4626 21.3643 16.2161C21.5936 15.4765 21.8021 14.7574 21.948 14.1C22.0939 13.5042 22.1773 12.8879 22.1773 12.2921C22.1773 11.8401 22.0939 11.3676 21.9063 10.9567C21.6978 10.4842 21.2392 10.1966 20.7181 10.1966C20.5513 10.1966 20.3845 10.2376 20.2386 10.3198C20.0927 10.402 19.9676 10.5253 19.8842 10.6691C19.6549 11.08 19.5715 11.799 19.6758 12.6413C19.8009 13.6069 20.0927 14.5725 20.5096 15.4559C20.3428 15.9285 20.1761 16.401 19.9885 16.894C19.8009 17.3871 19.5924 17.9007 19.3631 18.4554C19.1755 18.9074 18.967 19.3594 18.7377 19.8113C18.5084 20.2633 18.3208 20.6948 18.0706 21.1262C16.9658 21.5371 15.9235 22.0712 14.9437 22.7081C14.1724 23.2423 13.7138 23.7559 13.6513 24.2284C13.6096 24.3722 13.6305 24.5366 13.6721 24.6804C13.7347 24.8242 13.8181 24.968 13.9431 25.0707C14.0474 25.1529 14.1724 25.2351 14.2975 25.2967C14.4851 25.3789 14.6936 25.42 14.8812 25.42C15.6317 25.42 16.4238 24.8858 17.1743 24.064C17.9873 23.1395 18.696 22.1329 19.2797 21.044C19.6341 20.9207 19.9885 20.7975 20.3428 20.6948C20.6972 20.592 21.0725 20.4893 21.4685 20.3866C21.8438 20.2839 22.2815 20.1811 22.6776 20.099C23.0737 20.0168 23.4489 19.9552 23.8241 19.873C24.5329 20.5304 25.3876 21.044 26.3048 21.3727C26.8676 21.5576 27.4513 21.6603 28.0558 21.6603C28.4102 21.6809 28.7438 21.6193 29.0773 21.4549C29.2649 21.3522 29.39 21.1878 29.4525 21.0029C29.5151 20.818 29.5151 20.6126 29.4734 20.4277C29.4734 20.2633 29.39 20.1195 29.2858 20.0168ZM20.1969 10.8334C20.2595 10.7307 20.3429 10.6485 20.4262 10.5869C20.5096 10.5253 20.6138 10.5047 20.7389 10.5047C20.9474 10.5047 21.1558 10.6074 21.2601 10.7718C21.406 11.0183 21.4685 11.306 21.4477 11.5936C21.4268 12.0866 21.3643 12.5797 21.2601 13.0522C21.135 13.648 20.9682 14.3054 20.7389 15.0245C20.3637 14.2027 20.1135 13.3193 20.0093 12.3948C19.9468 11.6758 20.0093 11.1211 20.1969 10.8334ZM13.964 24.2284C14.0474 23.8381 14.4434 23.3861 15.1314 22.9341C15.986 22.3794 16.9033 21.9069 17.8622 21.5165C17.341 22.4205 16.7365 23.2628 16.0277 24.023C15.4649 24.6187 14.9437 24.9475 14.5685 24.9475C14.506 24.9475 14.4226 24.9269 14.3601 24.9064C14.2975 24.8858 14.235 24.8447 14.1725 24.7831C14.0891 24.7009 14.0474 24.6187 14.0057 24.516C13.964 24.4338 13.964 24.3311 13.964 24.2284ZM23.574 19.5854C23.2404 19.647 22.8861 19.7086 22.5317 19.7908C22.1773 19.8524 21.8021 19.9552 21.4477 20.0373C21.135 20.1195 20.8223 20.2017 20.5096 20.2839C20.1969 20.366 19.8842 20.4893 19.5924 20.592C19.7592 20.2633 19.9259 19.9552 20.0927 19.6265C20.2386 19.3183 20.3845 19.0101 20.4888 18.702C20.6347 18.3527 20.7806 18.0034 20.9057 17.6542C21.0308 17.3049 21.1767 16.9351 21.3018 16.5859C21.4268 16.8119 21.5519 17.0173 21.6978 17.2433C21.8438 17.4693 21.9897 17.6747 22.1564 17.9007C22.3858 18.1883 22.6151 18.4965 22.8444 18.7636C23.0737 19.0307 23.3238 19.3183 23.574 19.5854ZM24.1993 19.7703C24.8873 19.647 25.5752 19.5854 26.2631 19.5648C26.7217 19.5443 27.1803 19.5854 27.6389 19.647C27.8891 19.6881 28.1184 19.8113 28.2852 20.0168C28.4311 20.2017 28.4728 20.4277 28.4311 20.6537C28.3894 20.9208 28.2018 21.1262 27.9516 21.2289C27.6598 21.3522 27.3262 21.3727 27.0135 21.2905C26.4716 21.1467 25.9504 20.9413 25.471 20.6742C25.0332 20.4071 24.6163 20.099 24.1993 19.7703Z" fill="#FF2116"/>
<path d="M15.0475 30.6795V30.6384C15.0475 30.6384 15.0475 30.6384 15.0684 30.6179H15.0892C15.1726 30.6179 15.2768 30.6179 15.3811 30.5973H16.4859C16.8194 30.5973 17.1321 30.6384 17.4448 30.7412C17.695 30.8233 17.9243 30.9466 18.1119 31.1315C18.2786 31.2959 18.4246 31.5013 18.4871 31.7067C18.5705 31.9327 18.6122 32.1793 18.6122 32.4258C18.6122 32.7134 18.5496 33.0216 18.4454 33.2887C18.3412 33.5146 18.1744 33.7201 17.966 33.8844C17.7575 34.0488 17.5282 34.1515 17.278 34.2337C17.007 34.3159 16.7152 34.357 16.4234 34.3364H15.9856V36.3703C15.9856 36.3909 15.9856 36.3909 15.9856 36.3909V36.4114C15.9856 36.4114 15.9647 36.4114 15.9647 36.432H15.0892C15.0684 36.432 15.0684 36.4114 15.0684 36.4114V32.0765L15.0475 30.6795ZM16.0064 33.4941H16.4442C16.5901 33.4941 16.7569 33.4736 16.9028 33.453C17.0487 33.4119 17.1738 33.3708 17.2989 33.2887C17.424 33.2065 17.5073 33.1038 17.5699 32.9599C17.6324 32.7956 17.6741 32.6107 17.6741 32.4463C17.6741 32.3025 17.6533 32.1382 17.5907 32.0149C17.549 31.8916 17.4657 31.7889 17.3614 31.6862C17.2572 31.604 17.1321 31.5424 17.007 31.5013C16.8403 31.4602 16.6944 31.4397 16.5276 31.4397H16.0898C16.0481 31.4397 16.0273 31.4397 16.0064 31.4397V33.4941Z" fill="black"/>
<path d="M19.5702 30.659L19.591 30.6384H20.1747C20.2998 30.6384 20.4249 30.6384 20.5708 30.6384H21.0086C21.4046 30.6384 21.8216 30.7001 22.1968 30.8439C22.5095 30.9671 22.8013 31.1726 23.0306 31.4191C23.2599 31.6862 23.4267 31.9738 23.5309 32.3231C23.656 32.6929 23.6977 33.0832 23.6977 33.4736C23.7185 33.9666 23.6143 34.4597 23.4475 34.9322C23.1765 35.6102 22.6137 36.1443 21.8841 36.3703C21.5923 36.473 21.2587 36.5141 20.946 36.5141H19.862C19.7578 36.5141 19.6744 36.5141 19.6119 36.5141H19.591C19.591 36.5141 19.5702 36.5141 19.5702 36.4936V30.659ZM20.55 35.6102H20.9877C21.217 35.6102 21.4672 35.5691 21.6756 35.4869C21.8841 35.4047 22.0717 35.2609 22.2176 35.0966C22.3844 34.8911 22.5095 34.6651 22.5929 34.4186C22.6762 34.1104 22.7388 33.7817 22.7179 33.453C22.7179 33.1448 22.6762 32.8367 22.5929 32.5285C22.5095 32.3025 22.4052 32.0971 22.2385 31.9122C22.0926 31.7478 21.9049 31.6246 21.6965 31.5629C21.488 31.4807 21.2587 31.4602 21.0294 31.4602H20.6333C20.5916 31.4602 20.55 31.4602 20.5083 31.4602L20.55 35.6102Z" fill="black"/>
<path d="M25.7623 36.3704C25.7623 36.391 25.7623 36.391 25.7623 36.4115C25.7623 36.4115 25.7623 36.4321 25.7415 36.4321H24.8034V36.4115C24.8034 36.391 24.8034 36.391 24.8034 36.3704V30.6385C24.8034 30.6385 24.8243 30.6385 24.8243 30.618H27.8261C27.8261 30.618 27.8469 30.618 27.8469 30.6385C27.8469 30.6385 27.8469 30.6591 27.8678 30.6591V30.6796L27.9511 31.4192V31.4603C27.9511 31.4603 27.9512 31.4808 27.9303 31.4808C27.9303 31.4808 27.9095 31.4808 27.9095 31.5014H25.7415V33.1655H27.701C27.701 33.1655 27.7218 33.1655 27.7218 33.186C27.7218 33.2066 27.7218 33.2066 27.7218 33.2271V33.9667C27.7218 33.9873 27.7218 33.9873 27.7218 34.0078C27.7218 34.0078 27.7218 34.0284 27.701 34.0284H25.7415V36.3499L25.7623 36.3704Z" fill="black"/>
</svg>
