<svg width="14" height="17" viewBox="0 0 14 17" fill="none" xmlns="http://www.w3.org/2000/svg">
<path d="M12.5312 7.4948L1.80974 0.935986C1.62898 0.825298 1.42194 0.764871 1.21002 0.760946C0.998101 0.757022 0.788974 0.809742 0.604239 0.913661C0.421263 1.01597 0.268839 1.16516 0.162641 1.34591C0.0564438 1.52665 0.000305734 1.73242 0 1.94206V15.0582C0.00137871 15.3727 0.12757 15.6737 0.350833 15.8951C0.574096 16.1166 0.876158 16.2403 1.19062 16.2391C1.4101 16.239 1.62533 16.1785 1.81272 16.0643L12.5312 9.50545C12.7035 9.40044 12.8459 9.25288 12.9447 9.07695C13.0435 8.90103 13.0954 8.70264 13.0954 8.50087C13.0954 8.2991 13.0435 8.10072 12.9447 7.92479C12.8459 7.74886 12.7035 7.6013 12.5312 7.49629V7.4948ZM1.19062 15.0441V1.95173L11.8935 8.50013L1.19062 15.0441Z" fill="#012555"/>
</svg>
