<svg width="5" height="10" viewBox="0 0 5 10" fill="none" xmlns="http://www.w3.org/2000/svg">
<path d="M4.93335 5.16845L0.388171 9.93023C0.367057 9.95235 0.34199 9.96989 0.314402 9.98187C0.286814 9.99384 0.257246 10 0.227385 10C0.197525 10 0.167956 9.99384 0.140369 9.98187C0.112781 9.96989 0.0877144 9.95235 0.0665997 9.93023C0.045485 9.90811 0.0287362 9.88184 0.017309 9.85294C0.00588182 9.82404 0 9.79306 0 9.76178C0 9.73049 0.00588182 9.69952 0.017309 9.67061C0.0287362 9.64171 0.045485 9.61545 0.0665997 9.59333L4.45099 5L0.0665997 0.406669C0.0239567 0.361994 0 0.301402 0 0.238221C0 0.175041 0.0239567 0.114448 0.0665997 0.0697733C0.109243 0.0250981 0.167079 0 0.227385 0C0.287692 0 0.345528 0.0250981 0.388171 0.0697733L4.93335 4.83155C4.95448 4.85366 4.97124 4.87992 4.98268 4.90883C4.99411 4.93773 5 4.96871 5 5C5 5.03129 4.99411 5.06227 4.98268 5.09117C4.97124 5.12008 4.95448 5.14634 4.93335 5.16845Z" fill="white"/>
</svg>
