<svg width="502" height="515" viewBox="0 0 502 515" fill="none" xmlns="http://www.w3.org/2000/svg">
<path opacity="0.2" d="M253.553 164.829C273.855 165.298 293.304 173.1 308.312 186.797C323.321 200.493 332.878 219.161 335.221 239.358C337.564 259.555 332.536 279.919 321.062 296.696C309.589 313.473 292.445 325.531 272.791 330.646C253.137 335.762 232.298 333.591 214.117 324.534C195.936 315.476 181.638 300.143 173.86 281.361C166.082 262.578 165.348 241.614 171.794 222.332C178.24 203.051 191.431 186.753 208.934 176.443" stroke="#012555" stroke-width="0.804688" stroke-dasharray="6.44 6.44"/>
<path opacity="0.2" d="M260.53 118.499C293.096 120.467 323.772 134.471 346.611 157.798C369.45 181.124 382.825 212.11 384.143 244.749C385.461 277.388 374.628 309.354 353.744 334.45C332.86 359.546 303.414 375.984 271.113 380.578C238.813 385.171 205.959 377.593 178.922 359.312C151.884 341.031 132.59 313.349 124.778 281.634C116.967 249.918 121.196 216.429 136.644 187.657C152.093 158.886 177.661 136.883 208.391 125.914" stroke="#012555" stroke-width="0.804688" stroke-dasharray="6.44 6.44"/>
<path opacity="0.2" d="M262.666 69.9799C308.99 72.3952 352.68 92.2316 384.955 125.501C417.229 158.771 435.694 203.007 436.637 249.316C437.581 295.625 420.933 340.574 390.041 375.127C359.148 409.68 316.302 431.274 270.115 435.569C223.928 439.863 177.825 426.54 141.075 398.277C104.324 370.014 79.6515 328.906 72.016 283.219C64.3804 237.532 74.3482 190.653 99.9156 152.005C125.483 113.357 164.755 85.8067 209.835 74.8923" stroke="#012555" stroke-width="0.804688" stroke-dasharray="6.44 6.44"/>
<path opacity="0.2" d="M260.878 26.2862C318.554 28.2704 373.288 52.2117 413.869 93.2058C454.449 134.2 477.804 189.144 479.15 246.784C480.496 304.423 459.731 360.396 421.109 403.236C382.487 446.077 328.93 472.542 271.409 477.211C213.888 481.881 156.757 464.401 111.718 428.352C66.6793 392.303 37.1419 340.414 29.1559 283.313C21.1699 226.212 35.3399 168.222 68.7633 121.221C102.187 74.219 152.334 41.7638 208.933 30.5029" stroke="#012555" stroke-width="0.804688" stroke-dasharray="6.44 6.44"/>
<path d="M225.143 28.3919C225.143 27.0292 225.365 25.9675 225.809 25.2068C226.252 24.4383 227.029 24.054 228.138 24.054C229.239 24.054 230.012 24.4383 230.456 25.2068C230.899 25.9675 231.121 27.0292 231.121 28.3919C231.121 29.7785 230.899 30.856 230.456 31.6245C230.012 32.3931 229.239 32.7773 228.138 32.7773C227.029 32.7773 226.252 32.3931 225.809 31.6245C225.365 30.856 225.143 29.7785 225.143 28.3919ZM230.051 28.3919C230.051 27.7026 230.004 27.1203 229.909 26.6449C229.822 26.1616 229.635 25.7733 229.35 25.4802C229.073 25.187 228.669 25.0405 228.138 25.0405C227.599 25.0405 227.187 25.187 226.902 25.4802C226.625 25.7733 226.439 26.1616 226.343 26.6449C226.256 27.1203 226.213 27.7026 226.213 28.3919C226.213 29.105 226.256 29.7032 226.343 30.1865C226.439 30.6698 226.625 31.058 226.902 31.3512C227.187 31.6443 227.599 31.7909 228.138 31.7909C228.669 31.7909 229.073 31.6443 229.35 31.3512C229.635 31.058 229.822 30.6698 229.909 30.1865C230.004 29.7032 230.051 29.105 230.051 28.3919ZM232.344 30.8639V30.0439L236.516 24.268H237.811V29.925H239V30.8639H237.811V32.7773H236.742V30.8639H232.344ZM236.789 25.397L233.592 29.925H236.789V25.397Z" fill="#012555"/>
<path d="M225.143 72.9603C225.143 71.5975 225.365 70.5358 225.809 69.7752C226.252 69.0067 227.029 68.6224 228.138 68.6224C229.239 68.6224 230.012 69.0067 230.456 69.7752C230.899 70.5358 231.121 71.5975 231.121 72.9603C231.121 74.3468 230.899 75.4244 230.456 76.1929C230.012 76.9614 229.239 77.3457 228.138 77.3457C227.029 77.3457 226.252 76.9614 225.809 76.1929C225.365 75.4244 225.143 74.3468 225.143 72.9603ZM230.051 72.9603C230.051 72.271 230.004 71.6886 229.909 71.2132C229.822 70.7299 229.635 70.3417 229.35 70.0485C229.073 69.7554 228.669 69.6088 228.138 69.6088C227.599 69.6088 227.187 69.7554 226.902 70.0485C226.625 70.3417 226.439 70.7299 226.343 71.2132C226.256 71.6886 226.213 72.271 226.213 72.9603C226.213 73.6734 226.256 74.2715 226.343 74.7549C226.439 75.2382 226.625 75.6264 226.902 75.9195C227.187 76.2127 227.599 76.3593 228.138 76.3593C228.669 76.3593 229.073 76.2127 229.35 75.9195C229.635 75.6264 229.822 75.2382 229.909 74.7549C230.004 74.2715 230.051 73.6734 230.051 72.9603ZM232.582 70.9161C232.637 70.1872 232.919 69.6167 233.426 69.2047C233.933 68.7927 234.591 68.5867 235.399 68.5867C235.937 68.5867 236.401 68.6858 236.789 68.8839C237.185 69.074 237.482 69.3355 237.681 69.6682C237.887 70.001 237.99 70.3774 237.99 70.7973C237.99 71.2885 237.847 71.7124 237.562 72.0689C237.284 72.4255 236.92 72.6552 236.468 72.7582V72.8177C236.983 72.9444 237.391 73.194 237.692 73.5664C237.993 73.9388 238.144 74.426 238.144 75.0282C238.144 75.4798 238.041 75.8879 237.835 76.2523C237.629 76.6089 237.32 76.8901 236.908 77.0961C236.496 77.3021 236.001 77.4051 235.422 77.4051C234.583 77.4051 233.893 77.1872 233.355 76.7515C232.816 76.3078 232.515 75.6819 232.451 74.8737H233.497C233.553 75.3491 233.747 75.7373 234.079 76.0384C234.412 76.3395 234.856 76.49 235.411 76.49C235.965 76.49 236.385 76.3474 236.67 76.0622C236.963 75.769 237.11 75.3927 237.11 74.9331C237.11 74.3389 236.912 73.911 236.516 73.6496C236.12 73.3881 235.521 73.2574 234.721 73.2574H234.448V72.3542H234.733C235.462 72.3462 236.013 72.2274 236.385 71.9976C236.757 71.7599 236.944 71.3955 236.944 70.9042C236.944 70.4843 236.805 70.1476 236.528 69.894C236.258 69.6405 235.87 69.5137 235.363 69.5137C234.872 69.5137 234.476 69.6405 234.175 69.894C233.873 70.1476 233.695 70.4883 233.64 70.9161H232.582Z" fill="#012555"/>
<path d="M225.143 121.49C225.143 120.127 225.365 119.065 225.809 118.304C226.252 117.536 227.029 117.152 228.138 117.152C229.239 117.152 230.012 117.536 230.456 118.304C230.899 119.065 231.121 120.127 231.121 121.49C231.121 122.876 230.899 123.954 230.456 124.722C230.012 125.491 229.239 125.875 228.138 125.875C227.029 125.875 226.252 125.491 225.809 124.722C225.365 123.954 225.143 122.876 225.143 121.49ZM230.051 121.49C230.051 120.8 230.004 120.218 229.909 119.743C229.822 119.259 229.635 118.871 229.35 118.578C229.073 118.285 228.669 118.138 228.138 118.138C227.599 118.138 227.187 118.285 226.902 118.578C226.625 118.871 226.439 119.259 226.343 119.743C226.256 120.218 226.213 120.8 226.213 121.49C226.213 122.203 226.256 122.801 226.343 123.284C226.439 123.767 226.625 124.156 226.902 124.449C227.187 124.742 227.599 124.889 228.138 124.889C228.669 124.889 229.073 124.742 229.35 124.449C229.635 124.156 229.822 123.767 229.909 123.284C230.004 122.801 230.051 122.203 230.051 121.49ZM232.475 125.007C233.481 124.199 234.27 123.538 234.84 123.023C235.411 122.5 235.89 121.957 236.278 121.395C236.674 120.824 236.872 120.265 236.872 119.719C236.872 119.204 236.746 118.8 236.492 118.507C236.246 118.205 235.846 118.055 235.292 118.055C234.753 118.055 234.333 118.225 234.032 118.566C233.739 118.899 233.58 119.346 233.557 119.909H232.511C232.542 119.022 232.812 118.336 233.319 117.853C233.826 117.37 234.48 117.128 235.28 117.128C236.096 117.128 236.742 117.354 237.217 117.805C237.7 118.257 237.942 118.879 237.942 119.671C237.942 120.329 237.744 120.971 237.348 121.597C236.96 122.215 236.516 122.761 236.017 123.237C235.518 123.704 234.88 124.251 234.103 124.877H238.192V125.78H232.475V125.007Z" fill="#012555"/>
<path d="M226.135 170.019C226.135 168.656 226.357 167.594 226.801 166.834C227.245 166.065 228.021 165.681 229.13 165.681C230.232 165.681 231.004 166.065 231.448 166.834C231.891 167.594 232.113 168.656 232.113 170.019C232.113 171.405 231.891 172.483 231.448 173.251C231.004 174.02 230.232 174.404 229.13 174.404C228.021 174.404 227.245 174.02 226.801 173.251C226.357 172.483 226.135 171.405 226.135 170.019ZM231.044 170.019C231.044 169.33 230.996 168.747 230.901 168.272C230.814 167.789 230.628 167.4 230.342 167.107C230.065 166.814 229.661 166.667 229.13 166.667C228.591 166.667 228.179 166.814 227.894 167.107C227.617 167.4 227.431 167.789 227.336 168.272C227.248 168.747 227.205 169.33 227.205 170.019C227.205 170.732 227.248 171.33 227.336 171.813C227.431 172.297 227.617 172.685 227.894 172.978C228.179 173.271 228.591 173.418 229.13 173.418C229.661 173.418 230.065 173.271 230.342 172.978C230.628 172.685 230.814 172.297 230.901 171.813C230.996 171.33 231.044 170.732 231.044 170.019ZM233.313 166.798V165.812H235.547V174.404H234.454V166.798H233.313Z" fill="#012555"/>
<path d="M77.6409 358.667C94.9977 390.05 120.022 416.175 150.212 434.429C180.402 452.684 214.701 462.428 249.677 462.688C284.654 462.949 319.085 453.715 349.526 435.912C379.967 418.108 405.353 392.358 423.145 361.236C440.937 330.114 450.512 294.71 450.913 258.565C451.314 222.419 442.526 186.798 425.429 155.263C408.331 123.728 383.523 97.3831 353.485 78.8633C323.446 60.3434 289.23 50.2972 254.257 49.7289L253.489 100.148C279.923 100.578 305.783 108.171 328.487 122.168C351.19 136.165 369.94 156.077 382.862 179.911C395.784 203.745 402.426 230.668 402.123 257.987C401.82 285.306 394.583 312.064 381.136 335.586C367.688 359.108 348.502 378.57 325.494 392.026C302.487 405.482 276.464 412.461 250.029 412.264C223.593 412.068 197.67 404.703 174.853 390.906C152.035 377.109 133.121 357.364 120.003 333.644L77.6409 358.667Z" fill="#FB9E3F"/>
<path d="M187.208 398.324C207.874 408.22 230.427 413.228 253.215 412.982C276.004 412.736 298.45 407.242 318.911 396.902C339.371 386.562 357.329 371.637 371.468 353.221C385.608 334.805 395.571 313.364 400.629 290.468C405.686 267.571 405.71 243.799 400.699 220.892C395.688 197.985 385.768 176.522 371.666 158.076C357.563 139.63 339.636 124.667 319.196 114.283C298.756 103.899 276.321 98.3561 253.534 98.0612L252.934 147.281C268.598 147.483 284.02 151.293 298.071 158.431C312.122 165.57 324.445 175.855 334.139 188.536C343.833 201.216 350.652 215.969 354.097 231.716C357.542 247.463 357.526 263.804 354.049 279.544C350.572 295.283 343.723 310.022 334.004 322.681C324.284 335.341 311.94 345.6 297.875 352.708C283.81 359.816 268.38 363.593 252.715 363.762C237.05 363.931 221.547 360.488 207.34 353.685L187.208 398.324Z" fill="#E0E8F4"/>
<path d="M315.497 341.941C332.925 328.071 345.773 308.873 352.251 287.022C358.729 265.171 358.514 241.756 351.637 220.038C344.76 198.32 331.563 179.382 313.884 165.861C296.205 152.34 274.925 144.911 253.009 144.607L252.333 197.742C263.656 197.899 274.649 201.737 283.783 208.722C292.916 215.707 299.734 225.491 303.286 236.711C306.839 247.931 306.95 260.027 303.603 271.316C300.257 282.604 293.619 292.523 284.616 299.688L315.497 341.941Z" fill="#CDDFFE"/>
<path d="M5.67989 207.203C-4.36975 259.122 1.37698 312.966 22.1375 361.404C42.898 409.842 77.6634 450.518 121.699 477.895C165.735 505.271 216.902 518.017 268.231 514.397C319.561 510.777 368.558 490.966 408.552 457.663C448.546 424.36 477.591 379.183 491.734 328.283C505.877 277.384 504.43 223.236 487.589 173.214C470.748 123.191 439.332 79.7254 397.62 48.7347C355.908 17.7439 305.926 0.73473 254.481 0.0232561L253.8 52.1041C294.839 52.6717 334.711 66.2404 367.986 90.9625C401.261 115.685 426.322 150.359 439.757 190.263C453.191 230.167 454.346 273.362 443.064 313.966C431.782 354.569 408.611 390.608 376.707 417.175C344.803 443.742 305.716 459.546 264.77 462.434C223.823 465.322 183.006 455.154 147.877 433.315C112.749 411.476 85.0154 379.027 68.4542 340.387C51.8929 301.747 47.3086 258.794 55.3255 217.377L5.67989 207.203Z" fill="#012555"/>
</svg>
