<svg width="89" height="83" viewBox="0 0 89 83" fill="none" xmlns="http://www.w3.org/2000/svg">
<path d="M88.9207 32.798C88.6489 31.7371 87.663 30.9736 86.5528 30.9736C86.3058 30.9666 72.5638 32.1523 72.3186 32.1611C70.02 32.2737 68.3271 33.7796 66.7301 35.2539C66.1493 34.8915 65.4707 34.7015 64.7815 34.7103L51.503 20.4199C50.5864 19.4329 49.0214 19.3766 48.0355 20.2967C47.1651 21.0796 47.0123 22.4958 47.7034 23.4388L55.7468 34.8809C56.9956 36.7968 59.1628 37.4917 61.2429 38.1338C61.2145 38.8621 61.4312 39.6256 61.8593 40.2414L56.2051 58.3142C55.6917 59.8377 56.9192 61.4896 58.5375 61.465C60.7189 61.472 61.099 59.0619 61.9357 57.5665L61.8202 63.6412C60.0119 63.9262 58.2657 64.4452 56.5266 64.9729C43.6514 69.5646 45.8026 61.2574 35.3611 63.4178L34.9507 35.5336L48.0231 52.9432C48.588 53.6961 49.4602 54.0937 50.3431 54.0937C52.4481 54.1711 53.9615 51.6607 52.8691 49.8539L43.8664 33.6512C42.4311 30.7467 39.1377 29.612 36.3612 28.3805C36.2955 28.2046 36.2191 28.0322 36.1303 27.865L46.554 3.98846C47.1793 2.54236 46.5025 0.858754 45.0459 0.235979C43.7562 -0.341056 42.1397 0.177923 41.4256 1.38125L31.7568 17.2004C30.0657 19.7496 30.5258 22.8318 30.8207 25.6783C29.8827 25.965 29.0549 26.5509 28.4847 27.339L2.55315 30.3192C0.979281 30.5022 -0.159378 31.9219 0.0182598 33.4894C0.16037 34.8739 1.42338 36.0139 2.83027 36.0192C3.08429 36.0156 21.4378 36.408 21.683 36.4027C24.5341 36.5065 26.854 34.8106 29.0265 33.2202L28.5682 64.2745C23.8342 63.5902 21.5782 58.3863 15.8529 58.8331V49.5971C16.1691 49.4335 16.4391 49.2012 16.6452 48.9198L22.3882 49.7888C22.9566 49.8786 23.5162 49.4845 23.6032 48.9039C23.6921 48.3269 23.2924 47.7886 22.7097 47.7006L16.972 46.8333C16.6985 46.0012 15.9115 45.3837 15.034 45.2957L12.9236 39.9423C12.7105 39.3987 12.0923 39.1313 11.5434 39.3424C10.9945 39.5535 10.7245 40.1657 10.9377 40.7093L13.048 46.0627C12.4653 46.7119 12.3001 47.7024 12.6767 48.4905L9.04759 52.9819C8.47915 53.6398 9.01917 54.7235 9.87894 54.6971C10.1916 54.6971 10.5007 54.5617 10.7121 54.3013L13.7212 50.5787V59.1586C10.0797 60.0365 7.05449 62.7229 4.41835 65.1594C3.40048 66.1006 4.83757 67.6435 5.86432 66.7093C8.21625 64.5683 10.657 62.2954 13.7212 61.3506V62.4625C12.2131 62.3059 12.0248 64.5155 13.5436 64.5736H16.0305C17.5476 64.5155 17.3628 62.3059 15.8529 62.4625V60.9495C20.8481 60.5115 23.5997 66.1622 28.538 66.3997L28.3248 80.8889H25.9658C24.5678 80.9118 24.5625 82.9754 25.9658 83H37.9777C38.5657 83 39.0435 82.5268 39.0435 81.9444C39.0435 81.3621 38.5657 80.8889 37.9777 80.8889H35.6169L35.3913 65.5676C42.6531 63.7151 43.2731 68.5126 49.6005 68.509C53.7377 68.5055 57.7221 66.514 61.7776 65.7928L61.6764 71.0758H60.5466C59.1486 71.0987 59.1432 73.1623 60.5466 73.1869H69.2046C69.7926 73.1869 70.2705 72.7137 70.2705 72.1313C70.1941 70.8752 68.979 71.0793 68.0749 71.0758L67.9683 65.3899C73.5887 65.5553 79.1861 67.172 84.2648 68.414C85.4763 68.4299 85.7321 66.6442 84.5401 66.3381C79.6959 65.0503 73.7362 63.4688 67.9292 63.277L67.5029 40.6143C67.6627 40.4366 67.8031 40.2431 67.9239 40.0373L87.0857 35.7518C88.3966 35.4914 89.2795 34.0752 88.9189 32.798H88.9207ZM51.0945 51.2332C51.1158 51.9351 50.1406 52.2623 49.7338 51.6853L46.9928 48.0349C47.5861 47.6197 48.151 47.1834 48.6964 46.7225C48.7354 46.8825 51.2774 51.1505 51.0962 51.2314L51.0945 51.2332ZM41.9976 34.6698L47.643 44.8313C47.0319 45.3678 46.3959 45.8692 45.7191 46.3407L35.5689 32.8226C36.0663 32.2508 36.4163 31.5296 36.5584 30.7872C38.619 31.6844 40.93 32.5358 41.9976 34.6698ZM43.2464 2.47199C43.7172 1.68736 44.9589 2.3119 44.5947 3.15282L42.6336 7.64771C41.9674 7.33984 41.2906 7.06012 40.5978 6.80854L43.2482 2.47375L43.2464 2.47199ZM33.5794 18.2894L39.4698 8.65048C40.2586 8.91965 41.0331 9.23279 41.7862 9.58289L34.5475 26.1656C34.0626 25.8577 33.5119 25.6466 32.947 25.5463C32.7587 23.2329 32.1512 20.3477 33.5794 18.2877V18.2894ZM32.0215 27.5906C35.91 27.668 34.8779 33.3557 31.2079 32.0908C28.9253 31.1337 29.5488 27.7049 32.0215 27.5906ZM2.38084 33.7145C1.89767 33.3064 2.17478 32.4743 2.80007 32.418L7.37247 31.892C7.42753 32.6203 7.51102 33.3222 7.62294 34.0066C7.3245 33.9292 2.44302 34.0875 2.38084 33.7145ZM25.5306 33.0777C24.3777 33.8905 22.9584 34.325 21.5444 34.2916L9.79367 34.0506C9.65156 33.28 9.55208 32.4831 9.49169 31.6474L27.6569 29.5592C27.6036 30.189 27.6854 30.8241 27.8985 31.424L25.5288 33.0777H25.5306ZM30.4565 80.8889L31.144 34.2828C31.6911 34.4077 32.2506 34.4306 32.8013 34.3479C32.9559 44.8893 33.3342 70.6641 33.4852 80.8889H30.4565ZM63.9554 39.4092C62.2981 38.088 64.5132 35.7676 65.9397 37.3351C67.0392 38.607 65.3108 40.4243 63.9554 39.4092ZM57.4983 33.6794L49.4531 22.2319C49.2399 21.9451 49.6751 21.5687 49.9363 21.8519L62.6001 35.4808C62.3549 35.6744 62.1364 35.8978 61.9499 36.1458C60.4205 35.6374 58.3972 35.1448 57.4983 33.6794ZM58.8182 59.1815C58.6618 59.5245 58.1147 59.3081 58.2408 58.9493L63.6641 41.6136C64.0229 41.735 64.3995 41.8001 64.7779 41.8053C65.1243 43.306 65.5915 45.1127 64.8063 46.5536C63.339 49.6481 60.2979 56.0606 58.8199 59.1815H58.8182ZM63.8116 71.0758L64.158 52.8851L65.5489 49.9524C65.6341 54.53 65.8633 66.6706 65.945 71.0758H63.8116ZM86.8174 33.558C86.6824 33.8553 68.5989 37.6324 68.3733 37.7749C68.3307 37.4618 68.2436 37.1556 68.1157 36.8618C69.3308 35.7905 70.7554 34.3074 72.498 34.267L86.5314 33.0883C86.773 33.0513 86.956 33.3768 86.8157 33.558H86.8174Z" fill="white"/>
</svg>
