<svg width="407" height="407" viewBox="0 0 407 407" fill="none" xmlns="http://www.w3.org/2000/svg">
<circle cx="203.5" cy="203.5" r="203" stroke="#012555"/>
<path d="M337.609 203.5C337.609 259.61 322.514 310.386 298.134 347.12C273.751 383.857 240.123 406.5 203.047 406.5C165.971 406.5 132.342 383.857 107.96 347.12C83.5799 310.386 68.4844 259.61 68.4844 203.5C68.4844 147.39 83.5799 96.6137 107.96 59.8803C132.342 23.1431 165.971 0.5 203.047 0.5C240.123 0.5 273.751 23.1431 298.134 59.8803C322.514 96.6137 337.609 147.39 337.609 203.5Z" stroke="#012555"/>
<path d="M213.731 268.231C210.681 268.279 207.613 268.305 204.529 268.31L204.528 267.81C204.185 267.811 203.843 267.811 203.5 267.811C203.157 267.811 202.815 267.811 202.472 267.81L202.471 268.31C199.387 268.305 196.319 268.279 193.269 268.231L193.276 267.731C192.591 267.72 191.907 267.708 191.224 267.695L191.214 268.195C188.129 268.136 185.062 268.056 182.016 267.954L182.032 267.454C181.347 267.432 180.662 267.408 179.979 267.383L179.961 267.882C176.874 267.769 173.809 267.634 170.766 267.477L170.791 266.978C170.107 266.942 169.424 266.906 168.742 266.869L168.715 267.368C165.628 267.199 162.564 267.007 159.527 266.794L159.562 266.295C158.879 266.247 158.198 266.198 157.519 266.148L157.482 266.647C154.395 266.42 151.336 266.17 148.304 265.899L148.349 265.401C147.67 265.34 146.992 265.278 146.315 265.215L146.269 265.713C143.184 265.425 140.129 265.115 137.106 264.783L137.161 264.286C136.485 264.212 135.811 264.137 135.139 264.06L135.082 264.557C132 264.207 128.953 263.833 125.941 263.438L126.006 262.942C125.333 262.854 124.661 262.764 123.991 262.673L123.924 263.169C120.847 262.752 117.808 262.312 114.811 261.849L114.887 261.354C114.206 261.249 113.527 261.143 112.851 261.035L112.772 261.529C109.7 261.041 106.672 260.529 103.691 259.994L103.779 259.501C103.106 259.38 102.434 259.258 101.766 259.135L101.675 259.627C98.6118 259.062 95.5991 258.472 92.6397 257.859L92.7412 257.369C92.0769 257.231 91.4153 257.092 90.7564 256.952L90.6525 257.441C87.603 256.793 84.6116 256.119 81.6813 255.421L81.7972 254.934C81.124 254.774 80.4541 254.612 79.7875 254.449L79.6687 254.935C76.6261 254.191 73.6515 253.42 70.7483 252.623L70.8805 252.141C70.2225 251.96 69.5682 251.779 68.9176 251.595L68.7821 252.077C65.767 251.228 62.8316 250.351 59.9798 249.448L60.1309 248.971C59.4725 248.762 58.8186 248.552 58.1692 248.341L58.0144 248.816C55.0135 247.839 52.1088 246.832 49.3052 245.796L49.4785 245.327C48.8415 245.092 48.2099 244.855 47.5835 244.617L47.4057 245.084C44.4401 243.956 41.5928 242.796 38.8698 241.605L39.0702 241.146C38.4401 240.871 37.8167 240.594 37.2001 240.315L36.994 240.77C34.0919 239.458 31.3389 238.109 28.7429 236.727L28.9778 236.286C28.3662 235.96 27.7635 235.633 27.1697 235.304L26.9273 235.741C24.112 234.18 21.4948 232.579 19.0866 230.94L19.3679 230.527C18.7981 230.139 18.2401 229.749 17.6942 229.357L17.4027 229.764C14.7508 227.861 12.3783 225.909 10.3017 223.915L10.648 223.554C10.1584 223.084 9.68573 222.612 9.23004 222.137L8.86941 222.484C6.58062 220.101 4.71151 217.659 3.28946 215.168L3.72369 214.92C3.3901 214.336 3.08181 213.749 2.7991 213.161L2.34839 213.377C0.959531 210.484 0.171109 207.529 0.02493 204.524L0.52432 204.499C0.508145 204.167 0.500028 203.833 0.500028 203.499C0.500028 203.165 0.508145 202.832 0.52432 202.499L0.0249301 202.475C0.171109 199.47 0.959501 196.514 2.34836 193.622L2.7991 193.838C3.08182 193.249 3.39007 192.663 3.72366 192.078L3.28946 191.83C4.71152 189.339 6.58063 186.898 8.86941 184.515L9.23004 184.861C9.6857 184.387 10.1584 183.914 10.648 183.444L10.3017 183.084C12.3783 181.089 14.7508 179.138 17.4027 177.235L17.6942 177.641C18.2401 177.249 18.7981 176.86 19.3679 176.472L19.0866 176.058C21.4948 174.42 24.112 172.818 26.9273 171.258L27.1697 171.695C27.7635 171.366 28.3662 171.038 28.9778 170.713L28.7429 170.272C31.3389 168.89 34.0919 167.541 36.994 166.228L37.2001 166.684C37.8167 166.405 38.4401 166.128 39.0702 165.852L38.8698 165.394C41.5928 164.203 44.4401 163.042 47.4057 161.914L47.5835 162.382C48.2099 162.143 48.8416 161.907 49.4785 161.671L49.3053 161.202C52.1088 160.167 55.0135 159.159 58.0144 158.182L58.1692 158.658C58.8186 158.446 59.4725 158.236 60.1309 158.028L59.9799 157.551C62.8316 156.647 65.767 155.771 68.7821 154.922L68.9176 155.403C69.5682 155.22 70.2225 155.038 70.8806 154.858L70.7483 154.375C73.6515 153.579 76.6262 152.808 79.6687 152.064L79.7875 152.55C80.4541 152.387 81.1241 152.225 81.7972 152.064L81.6813 151.578C84.6116 150.879 87.603 150.206 90.6525 149.557L90.7564 150.046C91.4153 149.906 92.0769 149.767 92.7412 149.63L92.6397 149.14C95.5992 148.526 98.6118 147.937 101.675 147.372L101.766 147.864C102.434 147.74 103.106 147.618 103.779 147.497L103.691 147.005C106.672 146.47 109.7 145.958 112.772 145.469L112.851 145.963C113.527 145.856 114.206 145.749 114.887 145.644L114.811 145.15C117.808 144.687 120.847 144.247 123.924 143.83L123.991 144.325C124.661 144.235 125.333 144.145 126.007 144.057L125.941 143.561C128.953 143.165 132 142.792 135.082 142.442L135.139 142.938C135.811 142.862 136.485 142.787 137.161 142.712L137.106 142.215C140.129 141.883 143.184 141.573 146.269 141.286L146.315 141.784C146.992 141.721 147.67 141.659 148.349 141.598L148.304 141.1C151.336 140.828 154.395 140.579 157.482 140.352L157.519 140.85C158.198 140.8 158.879 140.751 159.562 140.703L159.527 140.205C162.564 139.991 165.628 139.8 168.715 139.631L168.742 140.13C169.424 140.092 170.107 140.056 170.791 140.021L170.766 139.522C173.809 139.365 176.874 139.23 179.961 139.116L179.979 139.616C180.662 139.591 181.347 139.567 182.032 139.544L182.016 139.044C185.062 138.943 188.129 138.862 191.214 138.804L191.224 139.304C191.907 139.291 192.591 139.279 193.276 139.268L193.269 138.768C196.319 138.72 199.387 138.693 202.471 138.688L202.472 139.188C202.815 139.188 203.157 139.187 203.5 139.187C203.843 139.187 204.185 139.188 204.528 139.188L204.529 138.688C207.613 138.693 210.681 138.72 213.731 138.768L213.724 139.268C214.409 139.279 215.093 139.291 215.776 139.304L215.786 138.804C218.871 138.862 221.938 138.943 224.985 139.044L224.968 139.544C225.653 139.567 226.338 139.591 227.021 139.616L227.039 139.116C230.126 139.23 233.192 139.365 236.234 139.522L236.209 140.021C236.893 140.056 237.576 140.092 238.258 140.13L238.285 139.631C241.372 139.8 244.436 139.991 247.473 140.205L247.438 140.703C248.121 140.751 248.802 140.8 249.481 140.85L249.518 140.352C252.605 140.579 255.664 140.828 258.696 141.1L258.651 141.598C259.33 141.659 260.008 141.721 260.685 141.784L260.731 141.286C263.816 141.573 266.871 141.883 269.894 142.215L269.839 142.712C270.515 142.787 271.189 142.862 271.861 142.938L271.918 142.442C275 142.792 278.047 143.165 281.059 143.561L280.994 144.057C281.667 144.145 282.339 144.235 283.009 144.325L283.076 143.83C286.153 144.247 289.192 144.687 292.189 145.15L292.113 145.644C292.794 145.749 293.473 145.856 294.149 145.963L294.228 145.469C297.3 145.958 300.328 146.47 303.309 147.005L303.221 147.497C303.894 147.618 304.566 147.74 305.234 147.864L305.325 147.372C308.388 147.937 311.401 148.526 314.36 149.14L314.259 149.63C314.923 149.767 315.585 149.906 316.244 150.046L316.348 149.557C319.397 150.206 322.388 150.879 325.319 151.578L325.203 152.064C325.876 152.225 326.546 152.387 327.213 152.55L327.331 152.064C330.374 152.808 333.349 153.579 336.252 154.375L336.119 154.858C336.778 155.038 337.432 155.22 338.082 155.403L338.218 154.922C341.233 155.771 344.168 156.647 347.02 157.551L346.869 158.028C347.528 158.236 348.181 158.446 348.831 158.658L348.986 158.182C351.987 159.159 354.891 160.167 357.695 161.202L357.522 161.671C358.158 161.907 358.79 162.143 359.417 162.382L359.594 161.914C362.56 163.042 365.407 164.203 368.13 165.394L367.93 165.852C368.56 166.128 369.183 166.405 369.8 166.684L370.006 166.228C372.908 167.541 375.661 168.89 378.257 170.272L378.022 170.713C378.634 171.038 379.237 171.366 379.83 171.695L380.073 171.258C382.888 172.818 385.505 174.42 387.913 176.058L387.632 176.472C388.202 176.86 388.76 177.249 389.306 177.641L389.597 177.235C392.249 179.138 394.622 181.089 396.698 183.084L396.352 183.444C396.842 183.914 397.314 184.387 397.77 184.861L398.131 184.515C400.419 186.898 402.289 189.339 403.711 191.83L403.276 192.078C403.61 192.663 403.918 193.249 404.201 193.838L404.652 193.622C406.041 196.514 406.829 199.47 406.975 202.475L406.476 202.499C406.492 202.832 406.5 203.165 406.5 203.499C406.5 203.833 406.492 204.167 406.476 204.499L406.975 204.524C406.829 207.529 406.041 210.484 404.652 213.377L404.201 213.161C403.918 213.749 403.61 214.336 403.276 214.92L403.711 215.168C402.289 217.659 400.419 220.101 398.131 222.484L397.77 222.137C397.314 222.612 396.842 223.084 396.352 223.554L396.698 223.915C394.622 225.909 392.249 227.861 389.597 229.764L389.306 229.358C388.76 229.749 388.202 230.139 387.632 230.527L387.913 230.94C385.505 232.579 382.888 234.18 380.073 235.741L379.83 235.304C379.237 235.633 378.634 235.96 378.022 236.286L378.257 236.727C375.661 238.109 372.908 239.458 370.006 240.77L369.8 240.315C369.183 240.594 368.56 240.871 367.93 241.146L368.13 241.605C365.407 242.796 362.56 243.956 359.594 245.084L359.417 244.617C358.79 244.855 358.158 245.092 357.521 245.327L357.695 245.796C354.891 246.832 351.987 247.839 348.986 248.816L348.831 248.341C348.181 248.552 347.528 248.762 346.869 248.971L347.02 249.448C344.168 250.351 341.233 251.228 338.218 252.077L338.082 251.595C337.432 251.779 336.777 251.96 336.119 252.141L336.252 252.623C333.349 253.42 330.374 254.191 327.331 254.935L327.213 254.449C326.546 254.612 325.876 254.774 325.203 254.934L325.319 255.421C322.388 256.119 319.397 256.793 316.348 257.441L316.244 256.952C315.585 257.092 314.923 257.231 314.259 257.369L314.36 257.859C311.401 258.472 308.388 259.062 305.325 259.627L305.234 259.135C304.566 259.258 303.894 259.38 303.221 259.501L303.309 259.994C300.328 260.529 297.3 261.041 294.228 261.529L294.149 261.035C293.473 261.143 292.794 261.249 292.113 261.354L292.19 261.849C289.192 262.312 286.153 262.752 283.076 263.169L283.009 262.673C282.339 262.764 281.667 262.854 280.994 262.942L281.059 263.438C278.047 263.833 275 264.207 271.918 264.557L271.862 264.06C271.189 264.137 270.515 264.212 269.839 264.286L269.894 264.783C266.871 265.115 263.816 265.425 260.731 265.713L260.685 265.215C260.008 265.278 259.33 265.34 258.651 265.401L258.696 265.899C255.664 266.17 252.605 266.42 249.518 266.647L249.481 266.148C248.802 266.198 248.121 266.247 247.439 266.295L247.473 266.794C244.436 267.007 241.372 267.199 238.285 267.368L238.258 266.869C237.576 266.906 236.893 266.942 236.209 266.978L236.234 267.477C233.192 267.634 230.126 267.769 227.039 267.882L227.021 267.383C226.338 267.408 225.653 267.432 224.968 267.454L224.985 267.954C221.938 268.056 218.871 268.136 215.786 268.195L215.776 267.695C215.093 267.708 214.409 267.72 213.724 267.731L213.731 268.231Z" stroke="#012555" stroke-opacity="0.8" stroke-dasharray="2 9"/>
<path d="M138.769 213.731C138.721 210.681 138.695 207.613 138.69 204.529L139.19 204.528C139.189 204.185 139.189 203.843 139.189 203.5C139.189 203.157 139.189 202.815 139.19 202.472L138.69 202.471C138.695 199.387 138.721 196.319 138.769 193.269L139.269 193.276C139.28 192.591 139.292 191.907 139.305 191.224L138.805 191.214C138.864 188.129 138.944 185.062 139.046 182.016L139.546 182.032C139.568 181.347 139.592 180.662 139.617 179.979L139.118 179.961C139.231 176.874 139.366 173.809 139.523 170.766L140.022 170.791C140.058 170.107 140.094 169.424 140.131 168.742L139.632 168.715C139.801 165.628 139.993 162.564 140.206 159.527L140.705 159.562C140.753 158.879 140.802 158.198 140.852 157.519L140.353 157.482C140.58 154.395 140.83 151.336 141.101 148.304L141.599 148.349C141.66 147.67 141.722 146.992 141.785 146.315L141.287 146.269C141.575 143.184 141.885 140.129 142.217 137.106L142.714 137.161C142.788 136.485 142.863 135.811 142.94 135.139L142.443 135.082C142.793 132 143.167 128.953 143.562 125.941L144.058 126.006C144.146 125.333 144.236 124.661 144.327 123.991L143.831 123.924C144.248 120.847 144.688 117.808 145.151 114.811L145.646 114.887C145.751 114.206 145.857 113.527 145.965 112.851L145.471 112.772C145.959 109.7 146.471 106.672 147.006 103.691L147.499 103.779C147.62 103.106 147.742 102.434 147.865 101.766L147.373 101.675C147.938 98.6117 148.528 95.5991 149.141 92.6397L149.631 92.7412C149.769 92.0769 149.908 91.4153 150.048 90.7564L149.559 90.6525C150.207 87.603 150.881 84.6116 151.579 81.6813L152.066 81.7972C152.226 81.124 152.388 80.4541 152.551 79.7875L152.065 79.6687C152.809 76.6261 153.58 73.6515 154.377 70.7483L154.859 70.8805C155.04 70.2225 155.221 69.5682 155.405 68.9176L154.923 68.7821C155.772 65.767 156.649 62.8316 157.552 59.9798L158.029 60.1308C158.238 59.4725 158.448 58.8186 158.659 58.1692L158.184 58.0144C159.161 55.0135 160.168 52.1088 161.204 49.3052L161.673 49.4785C161.908 48.8415 162.145 48.2099 162.383 47.5835L161.916 47.4057C163.044 44.4401 164.204 41.5928 165.395 38.8698L165.854 39.0702C166.129 38.4401 166.406 37.8167 166.685 37.2001L166.23 36.994C167.542 34.0918 168.891 31.3389 170.273 28.7429L170.714 28.9778C171.04 28.3662 171.367 27.7635 171.696 27.1697L171.259 26.9273C172.82 24.112 174.421 21.4948 176.06 19.0866L176.473 19.3679C176.861 18.7981 177.251 18.2401 177.642 17.6942L177.236 17.4027C179.139 14.7508 181.091 12.3783 183.085 10.3017L183.446 10.648C183.916 10.1584 184.388 9.68572 184.863 9.23003L184.516 8.86941C186.899 6.58062 189.341 4.71151 191.832 3.28945L192.08 3.72369C192.664 3.3901 193.251 3.08181 193.839 2.7991L193.623 2.34838C196.516 0.959527 199.471 0.171106 202.476 0.0249271L202.501 0.524317C202.833 0.508142 203.167 0.500025 203.501 0.500025C203.835 0.500025 204.168 0.508143 204.501 0.524317L204.525 0.0249273C207.53 0.171107 210.486 0.959498 213.378 2.34835L213.162 2.7991C213.751 3.08181 214.337 3.39007 214.922 3.72366L215.17 3.28945C217.661 4.71151 220.102 6.58062 222.485 8.86941L222.139 9.23004C222.613 9.6857 223.086 10.1584 223.556 10.648L223.916 10.3017C225.911 12.3783 227.862 14.7508 229.765 17.4027L229.359 17.6942C229.751 18.2401 230.14 18.7981 230.528 19.3679L230.942 19.0866C232.58 21.4948 234.182 24.112 235.742 26.9273L235.305 27.1697C235.634 27.7635 235.962 28.3662 236.287 28.9778L236.728 28.7429C238.11 31.3389 239.459 34.0919 240.772 36.9941L240.316 37.2001C240.595 37.8167 240.872 38.4401 241.148 39.0702L241.606 38.8698C242.797 41.5928 243.958 44.4401 245.086 47.4057L244.618 47.5835C244.857 48.2099 245.093 48.8416 245.329 49.4785L245.798 49.3053C246.833 52.1088 247.841 55.0135 248.818 58.0144L248.342 58.1692C248.554 58.8186 248.764 59.4725 248.972 60.1309L249.449 59.9799C250.353 62.8316 251.229 65.767 252.078 68.7821L251.597 68.9176C251.78 69.5682 251.962 70.2225 252.142 70.8806L252.625 70.7483C253.421 73.6515 254.192 76.6262 254.936 79.6687L254.45 79.7875C254.613 80.4541 254.775 81.1241 254.936 81.7972L255.422 81.6813C256.121 84.6116 256.794 87.603 257.443 90.6525L256.954 90.7564C257.094 91.4153 257.233 92.0769 257.37 92.7412L257.86 92.6397C258.474 95.5992 259.063 98.6118 259.628 101.675L259.136 101.766C259.26 102.434 259.382 103.106 259.503 103.779L259.995 103.691C260.53 106.672 261.042 109.7 261.531 112.772L261.037 112.851C261.144 113.527 261.251 114.206 261.356 114.887L261.85 114.811C262.313 117.808 262.753 120.847 263.17 123.924L262.675 123.991C262.765 124.661 262.855 125.333 262.943 126.006L263.439 125.941C263.835 128.953 264.208 132 264.558 135.082L264.062 135.139C264.138 135.811 264.213 136.485 264.288 137.161L264.785 137.106C265.117 140.129 265.427 143.184 265.714 146.269L265.216 146.315C265.279 146.992 265.341 147.67 265.402 148.349L265.9 148.304C266.172 151.336 266.421 154.395 266.648 157.482L266.15 157.519C266.2 158.198 266.249 158.879 266.297 159.562L266.795 159.527C267.009 162.564 267.2 165.628 267.369 168.715L266.87 168.742C266.908 169.424 266.944 170.107 266.979 170.791L267.478 170.766C267.635 173.809 267.77 176.874 267.884 179.961L267.384 179.979C267.409 180.662 267.433 181.347 267.456 182.032L267.956 182.016C268.057 185.062 268.138 188.129 268.196 191.214L267.696 191.224C267.709 191.907 267.721 192.591 267.732 193.276L268.232 193.269C268.28 196.319 268.307 199.387 268.312 202.471L267.812 202.472C267.812 202.815 267.813 203.157 267.813 203.5C267.813 203.843 267.812 204.185 267.812 204.528L268.312 204.529C268.307 207.613 268.28 210.681 268.232 213.731L267.732 213.724C267.721 214.409 267.709 215.093 267.696 215.776L268.196 215.786C268.138 218.871 268.057 221.938 267.956 224.985L267.456 224.968C267.433 225.653 267.409 226.338 267.384 227.021L267.884 227.039C267.77 230.126 267.635 233.192 267.478 236.234L266.979 236.209C266.944 236.893 266.908 237.576 266.87 238.258L267.369 238.285C267.2 241.372 267.009 244.436 266.795 247.473L266.297 247.438C266.249 248.121 266.2 248.802 266.15 249.481L266.648 249.518C266.421 252.605 266.172 255.664 265.9 258.696L265.402 258.651C265.341 259.33 265.279 260.008 265.216 260.685L265.714 260.731C265.427 263.816 265.117 266.871 264.785 269.894L264.288 269.839C264.213 270.515 264.138 271.189 264.062 271.861L264.558 271.918C264.208 275 263.835 278.047 263.439 281.059L262.943 280.994C262.855 281.667 262.765 282.339 262.675 283.009L263.17 283.076C262.753 286.153 262.313 289.192 261.85 292.189L261.356 292.113C261.251 292.794 261.144 293.473 261.037 294.149L261.531 294.228C261.042 297.3 260.53 300.328 259.995 303.309L259.503 303.221C259.382 303.894 259.26 304.566 259.136 305.234L259.628 305.325C259.063 308.388 258.474 311.401 257.86 314.36L257.37 314.259C257.233 314.923 257.094 315.585 256.954 316.244L257.443 316.348C256.794 319.397 256.121 322.388 255.422 325.319L254.936 325.203C254.775 325.876 254.613 326.546 254.45 327.213L254.936 327.331C254.192 330.374 253.421 333.349 252.625 336.252L252.142 336.119C251.962 336.778 251.78 337.432 251.597 338.082L252.078 338.218C251.229 341.233 250.353 344.168 249.449 347.02L248.972 346.869C248.764 347.528 248.554 348.181 248.342 348.831L248.818 348.986C247.841 351.987 246.833 354.891 245.798 357.695L245.329 357.522C245.093 358.158 244.857 358.79 244.618 359.417L245.086 359.594C243.958 362.56 242.797 365.407 241.606 368.13L241.148 367.93C240.872 368.56 240.595 369.183 240.316 369.8L240.772 370.006C239.459 372.908 238.11 375.661 236.728 378.257L236.287 378.022C235.962 378.634 235.634 379.237 235.305 379.83L235.742 380.073C234.182 382.888 232.58 385.505 230.942 387.913L230.528 387.632C230.14 388.202 229.751 388.76 229.359 389.306L229.765 389.597C227.862 392.249 225.911 394.622 223.916 396.698L223.556 396.352C223.086 396.842 222.613 397.314 222.139 397.77L222.485 398.131C220.102 400.419 217.661 402.289 215.17 403.711L214.922 403.276C214.337 403.61 213.751 403.918 213.162 404.201L213.378 404.652C210.486 406.04 207.53 406.829 204.525 406.975L204.501 406.476C204.168 406.492 203.835 406.5 203.501 406.5C203.167 406.5 202.833 406.492 202.501 406.476L202.476 406.975C199.471 406.829 196.516 406.041 193.623 404.652L193.839 404.201C193.251 403.918 192.664 403.61 192.08 403.276L191.832 403.711C189.341 402.289 186.899 400.419 184.516 398.131L184.863 397.77C184.388 397.314 183.916 396.842 183.446 396.352L183.085 396.698C181.091 394.622 179.139 392.249 177.236 389.597L177.642 389.306C177.251 388.76 176.861 388.202 176.473 387.632L176.06 387.913C174.421 385.505 172.82 382.888 171.259 380.073L171.696 379.83C171.367 379.237 171.04 378.634 170.714 378.022L170.273 378.257C168.891 375.661 167.542 372.908 166.23 370.006L166.685 369.8C166.406 369.183 166.129 368.56 165.853 367.93L165.395 368.13C164.204 365.407 163.044 362.56 161.916 359.594L162.383 359.417C162.145 358.79 161.908 358.158 161.673 357.521L161.204 357.695C160.168 354.891 159.161 351.987 158.184 348.986L158.659 348.831C158.448 348.181 158.238 347.528 158.029 346.869L157.552 347.02C156.649 344.168 155.772 341.233 154.923 338.218L155.405 338.082C155.221 337.432 155.04 336.777 154.859 336.119L154.377 336.252C153.58 333.348 152.809 330.374 152.065 327.331L152.551 327.213C152.388 326.546 152.226 325.876 152.066 325.203L151.579 325.319C150.881 322.388 150.207 319.397 149.559 316.348L150.048 316.244C149.908 315.585 149.769 314.923 149.631 314.259L149.141 314.36C148.528 311.401 147.938 308.388 147.373 305.325L147.865 305.234C147.742 304.566 147.62 303.894 147.499 303.221L147.006 303.309C146.471 300.328 145.959 297.3 145.471 294.228L145.965 294.149C145.857 293.473 145.751 292.794 145.646 292.113L145.151 292.189C144.688 289.192 144.248 286.153 143.831 283.076L144.327 283.009C144.236 282.339 144.146 281.667 144.058 280.994L143.562 281.059C143.167 278.047 142.793 275 142.443 271.918L142.94 271.862C142.863 271.189 142.788 270.515 142.714 269.839L142.217 269.894C141.885 266.871 141.575 263.816 141.287 260.731L141.785 260.685C141.722 260.008 141.66 259.33 141.599 258.651L141.101 258.696C140.83 255.664 140.58 252.605 140.353 249.518L140.852 249.481C140.802 248.802 140.753 248.121 140.705 247.438L140.206 247.473C139.993 244.436 139.801 241.372 139.632 238.285L140.131 238.258C140.094 237.576 140.058 236.893 140.022 236.209L139.523 236.234C139.366 233.192 139.231 230.126 139.118 227.039L139.617 227.021C139.592 226.338 139.568 225.653 139.546 224.968L139.046 224.985C138.944 221.938 138.864 218.871 138.805 215.786L139.305 215.776C139.292 215.093 139.28 214.409 139.269 213.724L138.769 213.731Z" stroke="#012555" stroke-opacity="0.8" stroke-dasharray="2 9"/>
<path d="M86.2849 86.1133L90.5694 97.6919L102.148 101.976L90.5694 106.261L86.2849 117.839L82.0004 106.261L70.4219 101.976L82.0004 97.6919L86.2849 86.1133Z" fill="#FB9E3F"/>
<path d="M154.863 322L159.147 333.579L170.726 337.863L159.147 342.147L154.863 353.726L150.579 342.147L139 337.863L150.579 333.579L154.863 322Z" fill="#FB9E3F"/>
<path d="M330.863 136L335.147 147.579L346.726 151.863L335.147 156.147L330.863 167.726L326.579 156.147L315 151.863L326.579 147.579L330.863 136Z" fill="#FB9E3F"/>
</svg>
