<svg width="388" height="501" viewBox="0 0 388 501" fill="none" xmlns="http://www.w3.org/2000/svg">
<path d="M1 143.657L184.011 2V500H1V143.657Z" stroke="black"/>
<path d="M103 53L105.701 60.2991L113 63L105.701 65.7009L103 73L100.299 65.7009L93 63L100.299 60.2991L103 53Z" fill="#FB9E3F"/>
<path d="M378 364L380.701 371.299L388 374L380.701 376.701L378 384L375.299 376.701L368 374L375.299 371.299L378 364Z" fill="#FB9E3F"/>
<path d="M184.011 138.378H377.58V498.24L180.491 500" stroke="black" stroke-dasharray="2 2"/>
<path d="M131.219 159.495V234.283" stroke="black"/>
<path d="M53.7915 160.375V235.162" stroke="black"/>
<path d="M131.219 271.237V346.025" stroke="black" stroke-dasharray="2 2"/>
<path d="M53.7915 272.117V346.905" stroke="black" stroke-dasharray="2 2"/>
<path d="M131.219 383.858V458.646" stroke="black"/>
<path d="M53.7915 384.738V459.526" stroke="black"/>
</svg>
