<svg width="120" height="55" viewBox="0 0 120 55" fill="none" xmlns="http://www.w3.org/2000/svg">
<path d="M10.3675 42.8892H9.51644L7.42747 37.4895L5.33849 42.8892H4.5648L0 31.2412H1.54739L5.02901 40.6522L6.80851 35.9467L5.02901 31.1641H6.34429L7.50484 34.1725L8.66538 31.1641H9.82592L8.04642 35.7153L9.90329 40.575L13.3075 31.1641H14.7002L10.3675 42.8892Z" fill="#012555"/>
<path d="M21.9729 42.6578L20.8124 39.2637H16.1702L15.0097 42.6578H13.4623L17.7176 30.9327H19.265L23.5203 42.6578H21.9729ZM18.4913 32.784L16.6344 38.0294H20.3482L18.4913 32.784Z" fill="#012555"/>
<path d="M27.4662 32.3983V42.6578H26.0735V32.3983H22.2824V31.2412H31.3346V32.3983H27.4662Z" fill="#012555"/>
<path d="M32.6499 42.6578V31.2412H39.0716V32.3983H34.0426V36.2553H38.2205V37.4123H34.0426V41.4236H39.2263V42.5806H32.6499V42.6578Z" fill="#012555"/>
<path d="M47.2727 42.6578L44.1006 37.798H42.5532V42.7349H41.1605V31.2412H44.6422C46.0348 31.2412 46.6538 31.4726 47.3501 32.0898C47.8917 32.6297 48.2785 33.4783 48.2785 34.3268C48.2785 35.2525 47.8917 36.101 47.2727 36.7181C46.8085 37.1809 46.4217 37.4123 45.5706 37.5666L48.9749 42.6578H47.2727ZM46.1122 32.784C45.8027 32.4755 45.4932 32.4755 44.4101 32.4755H42.5532V36.641H44.4101C45.9574 36.641 46.7311 35.8696 46.7311 34.4039C46.7311 33.6325 46.499 33.0926 46.1122 32.784Z" fill="#012555"/>
<path d="M60.0387 33.1697C59.4197 32.8611 59.1876 32.7069 58.8781 32.5526C58.4139 32.3983 57.7176 32.3212 57.3308 32.3212C56.0155 32.3212 55.1644 32.9383 55.1644 33.9411C55.1644 34.7896 55.706 35.2525 58.0271 36.4867C58.8008 36.8724 59.4197 37.2581 59.8066 37.6438C60.3482 38.1066 60.6576 38.878 60.6576 39.7265C60.6576 41.655 59.1876 42.8892 56.8665 42.8892C56.0928 42.8892 55.3192 42.7349 54.7776 42.5035C54.3134 42.3492 54.0812 42.195 53.3075 41.655L54.0039 40.4979C54.6228 40.9607 54.9323 41.115 55.3191 41.2693C55.8607 41.4236 56.4023 41.5778 56.9439 41.5778C58.3366 41.5778 59.1103 40.9607 59.1103 39.8808C59.1103 39.5722 59.0329 39.2637 58.9555 39.0323C58.8008 38.7237 58.4139 38.338 57.9497 38.1066C57.795 38.0295 57.0986 37.6438 56.0155 37.1038C54.3134 36.1781 53.5397 35.2525 53.5397 34.0954C53.5397 32.244 55.087 31.087 57.3308 31.087C58.0271 31.087 58.646 31.1641 59.265 31.3955C59.7292 31.5498 60.0387 31.7041 60.6576 32.0898L60.0387 33.1697Z" fill="#012555"/>
<path d="M62.2824 42.6578V31.2412H68.7041V32.3983H63.675V36.2553H67.853V37.4123H63.675V41.4236H68.8588V42.5806H62.2824V42.6578Z" fill="#012555"/>
<path d="M77.06 42.6578L73.8878 37.798H72.3404V42.7349H70.9478V31.2412H74.4294C75.822 31.2412 76.441 31.4726 77.1373 32.0898C77.6789 32.6297 78.0658 33.4783 78.0658 34.3268C78.0658 35.2525 77.6789 36.101 77.06 36.7181C76.5957 37.1809 76.2089 37.4123 75.3578 37.5666L78.7621 42.6578H77.06ZM75.8994 32.784C75.5899 32.4755 75.2805 32.3983 74.2747 32.3983H72.4178V36.5638H74.2747C75.822 36.5638 76.5957 35.7924 76.5957 34.3268C76.5184 33.6325 76.3636 33.0926 75.8994 32.784Z" fill="#012555"/>
<path d="M84.178 42.9663H83.3269L78.8395 31.2412H80.3868L83.7911 40.1893C83.8685 40.3436 83.8685 40.4979 83.9458 40.7293C83.9458 40.4979 83.9458 40.3436 84.0232 40.1893L87.2727 31.2412H88.6654L84.178 42.9663Z" fill="#012555"/>
<path d="M89.8259 42.6578V31.2412H91.2186V42.6578H89.8259Z" fill="#012555"/>
<path d="M101.354 33.1697C100.503 32.5526 99.6518 32.3212 98.5687 32.3212C96.1702 32.3212 94.3907 34.1725 94.3907 36.7952C94.3907 39.6494 96.1702 41.5778 98.8008 41.5778C99.8066 41.5778 100.503 41.4236 101.431 41.0379L101.818 42.1178C101.122 42.4264 100.812 42.5035 100.271 42.6578C99.7292 42.8121 99.265 42.8121 98.7234 42.8121C95.2418 42.8121 92.8433 40.3436 92.8433 36.7952C92.8433 33.4783 95.3191 30.9327 98.646 30.9327C99.4197 30.9327 100.116 31.087 100.812 31.3184C101.354 31.4726 101.586 31.6269 102.128 32.0126L101.354 33.1697Z" fill="#012555"/>
<path d="M103.985 42.6578V31.2412H110.406V32.3983H105.377V36.2553H109.555V37.4123H105.377V41.4236H110.561V42.5806H103.985V42.6578Z" fill="#012555"/>
<path d="M118.607 33.1697C117.988 32.8611 117.756 32.7069 117.447 32.5526C116.983 32.3983 116.286 32.3212 115.899 32.3212C114.584 32.3212 113.733 32.9383 113.733 33.9411C113.733 34.7896 114.275 35.2525 116.596 36.4867C117.369 36.8724 117.988 37.2581 118.375 37.6438C118.917 38.1066 119.226 38.878 119.226 39.7265C119.226 41.655 117.756 42.8892 115.435 42.8892C114.661 42.8892 113.888 42.7349 113.346 42.5035C112.882 42.3492 112.65 42.195 111.876 41.655L112.573 40.4979C113.191 40.9607 113.501 41.115 113.888 41.2693C114.429 41.4236 114.971 41.5778 115.513 41.5778C116.905 41.5778 117.679 40.9607 117.679 39.8808C117.679 39.5722 117.602 39.2637 117.524 39.0323C117.369 38.7237 116.983 38.338 116.518 38.1066C116.364 38.0295 115.667 37.6438 114.584 37.1038C112.882 36.1781 112.108 35.2525 112.108 34.0954C112.108 32.244 113.656 31.087 115.899 31.087C116.596 31.087 117.215 31.1641 117.834 31.3955C118.298 31.5498 118.607 31.7041 119.226 32.0898L118.607 33.1697Z" fill="#012555"/>
<path d="M4.5648 54.7686L4.10058 53.2258H1.93424L1.39265 54.7686H0.154739L2.47582 48.4432H3.55899L5.88008 54.7686H4.5648ZM3.01741 49.9088L2.32108 52.223H3.7911L3.01741 49.9088Z" fill="#012555"/>
<path d="M10.2128 49.986C9.51644 49.6774 8.97485 49.5231 8.58801 49.5231C8.04642 49.5231 7.65957 49.7546 7.65957 50.1403C7.65957 50.3717 7.81431 50.6031 8.27853 50.8345C9.20696 51.3745 9.90329 51.7602 10.1354 52.0687C10.3675 52.3001 10.5996 52.763 10.5996 53.2258C10.5996 54.3829 9.74855 55 8.3559 55C8.20116 55 7.96905 55 7.81431 55C7.3501 54.9229 7.11799 54.8457 6.49903 54.5372C6.42166 54.5372 6.26692 54.46 6.11219 54.3829L6.65377 53.3029C7.11799 53.5344 7.27273 53.6115 7.5822 53.7658C7.89168 53.8429 8.27853 53.92 8.51064 53.92C9.05222 53.92 9.43907 53.6886 9.43907 53.3029C9.43907 53.0715 9.28433 52.8401 8.89748 52.6087L7.73694 51.9144C6.65377 51.2973 6.26692 50.8345 6.26692 50.1403C6.26692 49.8317 6.34429 49.5231 6.49903 49.2917C6.5764 49.1374 6.73114 48.9832 6.96325 48.8289C7.42747 48.5203 7.81431 48.4432 8.58801 48.4432C8.97485 48.4432 9.3617 48.5203 9.74855 48.5975C10.058 48.6746 10.2128 48.7518 10.677 48.9832L10.2128 49.986Z" fill="#012555"/>
<path d="M15.087 49.986C14.3907 49.6774 13.8491 49.5231 13.4623 49.5231C12.9207 49.5231 12.5338 49.7546 12.5338 50.1403C12.5338 50.3717 12.6886 50.6031 13.1528 50.8345C14.0812 51.3745 14.7776 51.7602 15.0097 52.0687C15.2418 52.3001 15.4739 52.763 15.4739 53.2258C15.4739 54.3829 14.6228 55 13.2302 55C13.0754 55 12.8433 55 12.6886 55C12.2244 54.9229 11.9923 54.8457 11.3733 54.5372C11.2959 54.5372 11.1412 54.46 10.9865 54.3829L11.528 53.3029C11.9923 53.5344 12.147 53.6115 12.4565 53.7658C12.766 53.8429 13.1528 53.92 13.3849 53.92C13.9265 53.92 14.3133 53.6886 14.3133 53.3029C14.3133 53.0715 14.1586 52.8401 13.7718 52.6087L12.766 52.0687C11.6828 51.4516 11.2959 50.9888 11.2959 50.2945C11.2959 49.986 11.3733 49.6774 11.528 49.446C11.6054 49.2917 11.7602 49.1374 11.9923 48.9832C12.4565 48.6746 12.8433 48.5975 13.617 48.5975C14.0039 48.5975 14.3907 48.6746 14.7776 48.7518C15.087 48.8289 15.2418 48.906 15.706 49.1374L15.087 49.986Z" fill="#012555"/>
<path d="M19.1876 54.9229C17.2534 54.9229 15.8607 53.5344 15.8607 51.683C15.8607 49.7546 17.2534 48.4432 19.1876 48.4432C21.1992 48.4432 22.5145 49.7546 22.5145 51.683C22.5145 53.5344 21.1992 54.9229 19.1876 54.9229ZM19.1876 49.446C18.0271 49.446 17.0986 50.3717 17.0986 51.683C17.0986 52.9944 17.9497 53.92 19.1876 53.92C20.3482 53.92 21.2766 52.9944 21.2766 51.683C21.2766 50.3717 20.4255 49.446 19.1876 49.446Z" fill="#012555"/>
<path d="M27.7756 49.9088C27.3888 49.6003 26.8472 49.446 26.3056 49.446C25.0677 49.446 24.2166 50.2945 24.2166 51.5287C24.2166 52.9172 25.1451 53.7658 26.4603 53.7658C26.9246 53.7658 27.3114 53.6886 27.853 53.4572L28.0851 54.46C27.6983 54.6143 27.5435 54.6914 27.234 54.7686C26.9246 54.8457 26.6151 54.8457 26.2282 54.8457C25.2224 54.8457 24.5261 54.6143 23.9072 54.0743C23.2108 53.4572 22.824 52.5316 22.824 51.5287C22.824 50.6031 23.1335 49.7546 23.7524 49.1374C24.3714 48.5203 25.0677 48.2889 26.1509 48.2889C26.9246 48.2889 27.6209 48.4432 28.1625 48.906L27.7756 49.9088Z" fill="#012555"/>
<path d="M29.0135 54.7686V48.4432H30.1741V54.7686H29.0135Z" fill="#012555"/>
<path d="M35.1257 54.7686L34.6615 53.2258H32.4952L31.9536 54.7686H30.7157L33.0368 48.4432H34.1199L36.441 54.7686H35.1257ZM33.5783 49.9088L32.882 52.223H34.352L33.5783 49.9088Z" fill="#012555"/>
<path d="M38.9942 49.5231V54.7686H37.7563V49.5231H35.8994V48.5203H40.8511V49.5231H38.9942Z" fill="#012555"/>
<path d="M41.8569 54.7686V48.4432H43.0948V54.7686H41.8569Z" fill="#012555"/>
<path d="M46.9632 54.9229C45.029 54.9229 43.6364 53.5344 43.6364 51.683C43.6364 49.7546 45.029 48.4432 46.9632 48.4432C48.9749 48.4432 50.2901 49.7546 50.2901 51.683C50.2901 53.5344 48.8975 54.9229 46.9632 54.9229ZM46.9632 49.446C45.8027 49.446 44.8743 50.3717 44.8743 51.683C44.8743 52.9944 45.7253 53.92 46.9632 53.92C48.1238 53.92 49.0522 52.9944 49.0522 51.683C48.9749 50.3717 48.1238 49.446 46.9632 49.446Z" fill="#012555"/>
<path d="M55.1644 54.8457L52.4565 50.7574C52.4565 50.7574 52.3791 50.6802 52.3017 50.5259C52.2244 50.4488 52.2244 50.3717 52.2244 50.3717C52.2244 50.2945 52.147 50.2945 52.147 50.1403V54.7686H50.9865V48.4432H52.3791L55.0097 52.6087C55.0097 52.6087 55.0097 52.6858 55.087 52.763C55.087 52.8401 55.1644 52.8401 55.1644 52.9172L55.2418 53.0715L55.3191 53.1487V48.4432H56.4797V54.7686H55.1644V54.8457Z" fill="#012555"/>
<path d="M62.4371 54.9229C60.5029 54.9229 59.1102 53.5344 59.1102 51.683C59.1102 49.7546 60.5029 48.4432 62.4371 48.4432C64.4487 48.4432 65.764 49.7546 65.764 51.683C65.764 53.5344 64.3714 54.9229 62.4371 54.9229ZM62.4371 49.446C61.2766 49.446 60.3482 50.3717 60.3482 51.683C60.3482 52.9944 61.1992 53.92 62.4371 53.92C63.5977 53.92 64.5261 52.9944 64.5261 51.683C64.5261 50.3717 63.5977 49.446 62.4371 49.446Z" fill="#012555"/>
<path d="M68.0077 51.1431H70.2514V52.1459H68.0077V54.7686H66.7698V48.4432H70.7157V49.446H68.0077V51.1431Z" fill="#012555"/>
<path d="M77.2921 54.7686L76.8279 53.2258H74.7389L74.1973 54.7686H72.9594L75.2805 48.4432H76.3636L78.6847 54.7686H77.2921ZM75.7447 49.9088L75.0484 52.223H76.5184L75.7447 49.9088Z" fill="#012555"/>
<path d="M83.4043 54.46C82.94 54.7686 82.3985 54.9229 81.6248 54.9229C80.8511 54.9229 80.3095 54.7686 79.8453 54.46C79.2263 53.9972 78.9942 53.4572 78.9942 52.3001V48.4432H80.1547V52.3773C80.1547 53.3029 80.619 53.7658 81.6248 53.7658C82.5532 53.7658 83.0174 53.3029 83.0174 52.3773V48.4432H84.2553V52.3001C84.2553 53.4572 84.0232 53.9972 83.4043 54.46Z" fill="#012555"/>
<path d="M89.5164 49.986C88.8201 49.6774 88.2785 49.5231 87.8917 49.5231C87.3501 49.5231 86.9632 49.7546 86.9632 50.1403C86.9632 50.3717 87.118 50.6031 87.5822 50.8345C88.5106 51.3745 89.207 51.7602 89.4391 52.0687C89.6712 52.3001 89.9033 52.763 89.9033 53.2258C89.9033 54.3829 89.0522 55 87.6596 55C87.5048 55 87.2727 55 87.118 55C86.6538 54.9229 86.4217 54.8457 85.8027 54.5372C85.7253 54.5372 85.5706 54.46 85.4159 54.3829L85.9574 53.3029C86.4217 53.5344 86.5764 53.6115 86.8859 53.7658C87.1954 53.8429 87.5822 53.92 87.8143 53.92C88.3559 53.92 88.7427 53.6886 88.7427 53.3029C88.7427 53.0715 88.588 52.8401 88.2012 52.6087L87.1954 52.0687C86.1122 51.4516 85.7253 50.9888 85.7253 50.2945C85.7253 49.986 85.8027 49.6774 85.9574 49.446C86.0348 49.2917 86.1895 49.1374 86.4217 48.9832C86.8859 48.6746 87.2727 48.5975 88.0464 48.5975C88.4333 48.5975 88.8201 48.6746 89.207 48.7518C89.5164 48.8289 89.6712 48.906 90.1354 49.1374L89.5164 49.986Z" fill="#012555"/>
<path d="M93.7718 49.5231V54.7686H92.5339V49.5231H90.677V48.5203H95.6286V49.5231H93.7718Z" fill="#012555"/>
<path d="M99.8839 54.7686L98.4139 52.223H97.795V54.7686H96.5571V48.4432H98.646C99.5745 48.4432 99.9613 48.5203 100.348 48.906C100.658 49.2146 100.89 49.6774 100.89 50.2945C100.89 50.7574 100.812 51.1431 100.58 51.4516C100.348 51.7602 100.116 51.9144 99.5745 52.0687L101.122 54.7686H99.8839ZM98.646 49.5231H97.8723V51.2202H98.646C99.4197 51.2202 99.7292 50.9888 99.7292 50.2945C99.7292 49.7546 99.4197 49.5231 98.646 49.5231Z" fill="#012555"/>
<path d="M106.228 54.7686L105.764 53.2258H103.675L103.133 54.7686H101.896L104.217 48.4432H105.3L107.621 54.7686H106.228ZM104.681 49.9088L103.985 52.223H105.455L104.681 49.9088Z" fill="#012555"/>
<path d="M108.085 54.7686V48.4432H109.323V53.6886H111.876V54.7686H108.085Z" fill="#012555"/>
<path d="M112.573 54.7686V48.4432H113.81V54.7686H112.573Z" fill="#012555"/>
<path d="M118.685 54.7686L118.221 53.2258H116.054L115.513 54.7686H114.275L116.596 48.4432H117.679L120 54.7686H118.685ZM117.137 49.9088L116.441 52.223H117.911L117.137 49.9088Z" fill="#012555"/>
<path d="M60.0387 2.46844C60.1934 2.46844 60.4255 2.46844 60.5803 2.46844C75.9768 2.46844 88.2785 4.70547 88.2785 6.9425C88.2785 9.17952 75.9768 10.568 60.5803 10.568C45.1838 10.568 32.6499 8.48527 32.6499 6.24825C32.6499 4.93689 36.7505 3.70266 43.1721 3.00841V2.62272C35.3578 3.39411 30.2514 5.01403 30.2514 6.5568C30.2514 9.17952 43.7137 11.4165 60.1161 11.4165C76.5184 11.4165 89.9807 9.41094 89.9807 6.78822C89.9807 4.1655 76.5184 2.08275 60.1161 2.08275C60.0387 2.08275 60.0387 2.08275 59.9613 2.08275V2.46844H60.0387Z" fill="#012555"/>
<path d="M59.8066 1.3885C60.1161 1.3885 60.4255 1.3885 60.735 1.3885C81.8569 1.3885 98.8008 4.47405 98.8008 7.63674C98.8008 10.7223 81.8569 12.6508 60.735 12.6508C39.6132 12.6508 22.2824 9.79663 22.2824 6.63394C22.2824 4.85975 28.0077 3.08555 36.8279 2.15989V1.77419C26.1509 2.85414 19.1103 5.01402 19.1103 7.17391C19.1103 10.6452 37.6015 13.7307 60.1161 13.7307C82.6306 13.7307 101.122 10.9537 101.122 7.48247C101.122 4.01122 82.6306 1.07994 60.1161 1.07994C60.0387 1.07994 59.8839 1.07994 59.8066 1.07994V1.3885Z" fill="#012555"/>
<path d="M59.5745 0.385694C59.8839 0.385694 60.2708 0.385694 60.5803 0.385694C87.5822 0.385694 109.246 4.39691 109.246 8.33099C109.246 12.2651 87.5822 14.8107 60.5803 14.8107C33.5783 14.8107 11.4507 11.108 11.4507 7.17391C11.4507 4.85975 18.8008 2.62272 30.2514 1.3885V1.0028C16.7118 2.31417 7.73694 5.01402 7.73694 7.71388C7.73694 12.1108 31.2573 16.0449 59.9613 16.0449C88.6654 16.0449 112.186 12.5736 112.186 8.09958C112.186 3.70266 88.6654 0 59.9613 0C59.8066 0 59.7292 0 59.5745 0V0.385694Z" fill="#012555"/>
<path d="M60.1934 2.08275H60.0387V2.46844C60.1934 2.46844 60.4255 2.46844 60.5803 2.46844C75.9768 2.46844 88.2785 4.70547 88.2785 6.9425C88.2785 8.09958 86.5764 8.94811 83.7137 9.71949C87.7369 8.94811 90.1354 7.9453 90.1354 6.86536C90.058 4.24264 76.5957 2.08275 60.1934 2.08275Z" fill="#012555"/>
<path d="M60.1934 1.0028C60.1161 1.0028 59.9613 1.0028 59.8839 1.0028V1.3885C60.1934 1.3885 60.5029 1.3885 60.8124 1.3885C81.9342 1.3885 98.8781 4.47405 98.8781 7.63674C98.8781 7.71388 98.8781 7.71388 98.8781 7.79102C98.8781 9.17952 96.4797 10.3366 92.3791 11.3394C97.9497 10.2595 101.199 8.94811 101.199 7.40533C101.122 3.93408 82.7079 1.0028 60.1934 1.0028Z" fill="#012555"/>
<path d="M59.9613 0C59.8066 0 59.7292 0 59.5745 0V0.385694C59.8839 0.385694 60.2708 0.385694 60.5803 0.385694C87.5822 0.385694 109.246 4.39691 109.246 8.33099C109.246 8.40813 109.246 8.40813 109.246 8.48527C109.246 10.1052 106.77 11.5708 102.36 12.7279C108.549 11.4165 112.186 9.79663 112.186 8.09958C112.186 3.70266 88.6654 0 59.9613 0Z" fill="#012555"/>
</svg>
