<svg width="169" height="80" viewBox="0 0 169 80" fill="none" xmlns="http://www.w3.org/2000/svg">
<g clip-path="url(#clip0_576_7407)">
<path d="M14.6103 60.9315H13.411L10.4671 53.2602L7.52323 60.9315H6.4329L0 44.3835H2.18065L7.0871 57.7534L9.59484 51.0684L7.0871 44.2739H8.94065L10.5761 48.5479L12.2116 44.2739H13.8471L11.3394 50.7397L13.9561 57.6438L18.7535 44.2739H20.7161L14.6103 60.9315Z" fill="white"/>
<path d="M30.9623 60.6028L29.3268 55.7809H22.7849L21.1494 60.6028H18.9688L24.9655 43.9453H27.1462L33.1429 60.6028H30.9623ZM26.0558 46.5755L23.4391 54.0275H28.6726L26.0558 46.5755Z" fill="white"/>
<path d="M38.7036 46.0276V60.603H36.741V46.0276H31.3984V44.3838H44.1552V46.0276H38.7036Z" fill="white"/>
<path d="M46.0078 60.603V44.3838H55.0575V46.0276H47.9704V51.5071H53.8581V53.1509H47.9704V58.8495H55.2756V60.4934H46.0078V60.603Z" fill="white"/>
<path d="M66.6214 60.603L62.151 53.6989H59.9704V60.7126H58.0078V44.3838H62.9143C64.8768 44.3838 65.7491 44.7126 66.7304 45.5893C67.4936 46.3564 68.0388 47.5619 68.0388 48.7674C68.0388 50.0824 67.4936 51.2879 66.6214 52.1646C65.9672 52.8221 65.422 53.1509 64.2227 53.3701L69.0201 60.603H66.6214ZM64.9859 46.5756C64.5497 46.1372 64.1136 46.1372 62.5872 46.1372H59.9704V52.055H62.5872C64.7678 52.055 65.8581 50.9591 65.8581 48.8769C65.8581 47.781 65.531 47.0139 64.9859 46.5756Z" fill="white"/>
<path d="M84.6108 47.1235C83.7385 46.6851 83.4114 46.4659 82.9753 46.2467C82.3211 46.0276 81.3398 45.918 80.7947 45.918C78.9411 45.918 77.7418 46.7947 77.7418 48.2193C77.7418 49.4248 78.505 50.0824 81.776 51.8358C82.8663 52.3837 83.7386 52.9317 84.2837 53.4796C85.0469 54.1372 85.4831 55.233 85.4831 56.4385C85.4831 59.1783 83.4115 60.9317 80.1405 60.9317C79.0502 60.9317 77.9598 60.7125 77.1966 60.3837C76.5424 60.1645 76.2153 59.9454 75.125 59.1783L76.1063 57.5344C76.9786 58.1919 77.4147 58.4111 77.9598 58.6303C78.7231 58.8495 79.4863 59.0687 80.2495 59.0687C82.2121 59.0687 83.3024 58.1919 83.3024 56.6577C83.3024 56.2193 83.1934 55.781 83.0844 55.4522C82.8663 55.0139 82.3211 54.4659 81.6669 54.1372C81.4489 54.0276 80.4676 53.4796 78.9411 52.7125C76.5424 51.3974 75.4521 50.0824 75.4521 48.4385C75.4521 45.8084 77.6327 44.1646 80.7947 44.1646C81.776 44.1646 82.6482 44.2741 83.5205 44.6029C84.1747 44.8221 84.6108 45.0413 85.4831 45.5892L84.6108 47.1235Z" fill="white"/>
<path d="M87.7734 60.603V44.3838H96.8231V46.0276H89.736V51.5071H95.6238V53.1509H89.736V58.8495H97.0412V60.4934H87.7734V60.603Z" fill="white"/>
<path d="M108.598 60.603L104.128 53.6989H101.947V60.7126H99.9844V44.3838H104.891C106.853 44.3838 107.726 44.7126 108.707 45.5893C109.47 46.3564 110.015 47.5619 110.015 48.7674C110.015 50.0824 109.47 51.2879 108.598 52.1646C107.944 52.8221 107.399 53.1509 106.199 53.3701L110.997 60.603H108.598ZM106.962 46.5756C106.526 46.1372 106.09 46.0276 104.673 46.0276H102.056V51.9454H104.673C106.853 51.9454 107.944 50.8495 107.944 48.7674C107.835 47.781 107.617 47.0139 106.962 46.5756Z" fill="white"/>
<path d="M118.625 61.0413H117.425L111.102 44.3838H113.282L118.08 57.0961C118.189 57.3153 118.189 57.5345 118.298 57.8632C118.298 57.5345 118.298 57.3153 118.407 57.0961L122.986 44.3838H124.949L118.625 61.0413Z" fill="white"/>
<path d="M126.586 60.603V44.3838H128.549V60.603H126.586Z" fill="white"/>
<path d="M142.829 47.1234C141.63 46.2467 140.431 45.9179 138.904 45.9179C135.524 45.9179 133.017 48.5481 133.017 52.2741C133.017 56.3289 135.524 59.0686 139.231 59.0686C140.649 59.0686 141.63 58.8494 142.939 58.3015L143.484 59.8357C142.502 60.2741 142.066 60.3837 141.303 60.6028C140.54 60.822 139.886 60.822 139.122 60.822C134.216 60.822 130.836 57.3152 130.836 52.2741C130.836 47.5618 134.325 43.9453 139.013 43.9453C140.104 43.9453 141.085 44.1645 142.066 44.4933C142.829 44.7124 143.157 44.9316 143.92 45.4796L142.829 47.1234Z" fill="white"/>
<path d="M146.539 60.603V44.3838H155.589V46.0276H148.502V51.5071H154.389V53.1509H148.502V58.8495H155.807V60.4934H146.539V60.603Z" fill="white"/>
<path d="M167.15 47.1235C166.278 46.6851 165.951 46.4659 165.514 46.2467C164.86 46.0276 163.879 45.918 163.334 45.918C161.48 45.918 160.281 46.7947 160.281 48.2193C160.281 49.4248 161.044 50.0824 164.315 51.8358C165.405 52.3837 166.278 52.9317 166.823 53.4796C167.586 54.1372 168.022 55.233 168.022 56.4385C168.022 59.1783 165.951 60.9317 162.68 60.9317C161.589 60.9317 160.499 60.7125 159.736 60.3837C159.081 60.1645 158.754 59.9454 157.664 59.1783L158.645 57.5344C159.518 58.1919 159.954 58.4111 160.499 58.6303C161.262 58.8495 162.025 59.0687 162.789 59.0687C164.751 59.0687 165.841 58.1919 165.841 56.6577C165.841 56.2193 165.732 55.781 165.623 55.4522C165.405 55.0139 164.86 54.4659 164.206 54.1372C163.988 54.0276 163.007 53.4796 161.48 52.7125C159.081 51.3974 157.991 50.0824 157.991 48.4385C157.991 45.8084 160.172 44.1646 163.334 44.1646C164.315 44.1646 165.187 44.2741 166.06 44.6029C166.714 44.8221 167.15 45.0413 168.022 45.5892L167.15 47.1235Z" fill="white"/>
<path d="M6.43359 77.8086L5.7794 75.6168H2.72649L1.96327 77.8086H0.21875L3.48972 68.8223H5.01617L8.28714 77.8086H6.43359ZM4.25294 70.9045L3.27165 74.1921H5.34327L4.25294 70.9045Z" fill="white"/>
<path d="M14.3959 71.0141C13.4146 70.5757 12.6514 70.3565 12.1062 70.3565C11.343 70.3565 10.7978 70.6853 10.7978 71.2332C10.7978 71.562 11.0159 71.8908 11.6701 72.2195C12.9785 72.9867 13.9598 73.5346 14.2869 73.973C14.614 74.3017 14.9411 74.9593 14.9411 75.6168C14.9411 77.2606 13.7417 78.1373 11.7791 78.1373C11.5611 78.1373 11.234 78.1373 11.0159 78.1373C10.3617 78.0277 10.0346 77.9182 9.16235 77.4798C9.05332 77.4798 8.83525 77.3702 8.61719 77.2606L9.38041 75.7264C10.0346 76.0551 10.2527 76.1647 10.6888 76.3839C11.1249 76.4935 11.6701 76.6031 11.9972 76.6031C12.7604 76.6031 13.3056 76.2743 13.3056 75.7264C13.3056 75.3976 13.0875 75.0688 12.5423 74.7401L10.9069 73.7538C9.38041 72.8771 8.83525 72.2195 8.83525 71.2332C8.83525 70.7949 8.94428 70.3565 9.16235 70.0277C9.27138 69.8086 9.48945 69.5894 9.81654 69.3702C10.4707 68.9319 11.0159 68.8223 12.1062 68.8223C12.6514 68.8223 13.1965 68.9319 13.7417 69.0414C14.1778 69.151 14.3959 69.2606 15.0501 69.5894L14.3959 71.0141Z" fill="white"/>
<path d="M21.2631 71.0136C20.2818 70.5753 19.5186 70.3561 18.9734 70.3561C18.2102 70.3561 17.665 70.6849 17.665 71.2328C17.665 71.5616 17.8831 71.8903 18.5373 72.2191C19.8457 72.9862 20.827 73.5342 21.1541 73.9725C21.4811 74.3013 21.8082 74.9588 21.8082 75.6164C21.8082 77.2602 20.6089 78.1369 18.6463 78.1369C18.4282 78.1369 18.1011 78.1369 17.8831 78.1369C17.2289 78.0273 16.9018 77.9177 16.0295 77.4794C15.9205 77.4794 15.7024 77.3698 15.4844 77.2602L16.2476 75.7259C16.9018 76.0547 17.1199 76.1643 17.556 76.3835C17.9921 76.4931 18.5373 76.6027 18.8644 76.6027C19.6276 76.6027 20.1728 76.2739 20.1728 75.7259C20.1728 75.3972 19.9547 75.0684 19.4095 74.7396L17.9921 73.9725C16.4657 73.0958 15.9205 72.4383 15.9205 71.452C15.9205 71.0136 16.0295 70.5753 16.2476 70.2465C16.3566 70.0273 16.5747 69.8081 16.9018 69.589C17.556 69.1506 18.1011 69.041 19.1915 69.041C19.7366 69.041 20.2818 69.1506 20.827 69.2602C21.2631 69.3698 21.4811 69.4794 22.1353 69.8081L21.2631 71.0136Z" fill="white"/>
<path d="M27.0399 78.0277C24.3141 78.0277 22.3516 76.0551 22.3516 73.425C22.3516 70.6853 24.3141 68.8223 27.0399 68.8223C29.8748 68.8223 31.7283 70.6853 31.7283 73.425C31.7283 76.0551 29.8748 78.0277 27.0399 78.0277ZM27.0399 70.2469C25.4045 70.2469 24.0961 71.562 24.0961 73.425C24.0961 75.288 25.2954 76.6031 27.0399 76.6031C28.6754 76.6031 29.9838 75.288 29.9838 73.425C29.9838 71.562 28.7845 70.2469 27.0399 70.2469Z" fill="white"/>
<path d="M39.1421 70.9044C38.597 70.466 37.8337 70.2469 37.0705 70.2469C35.326 70.2469 34.1266 71.4523 34.1266 73.2058C34.1266 75.1784 35.435 76.3838 37.2886 76.3838C37.9428 76.3838 38.4879 76.2743 39.2512 75.9455L39.5783 77.3702C39.0331 77.5893 38.815 77.6989 38.3789 77.8085C37.9428 77.9181 37.5066 77.9181 36.9615 77.9181C35.5441 77.9181 34.5628 77.5893 33.6905 76.8222C32.7092 75.9455 32.1641 74.6304 32.1641 73.2058C32.1641 71.8907 32.6002 70.6852 33.4725 69.8085C34.3447 68.9318 35.326 68.603 36.8524 68.603C37.9428 68.603 38.9241 68.8222 39.6873 69.4797L39.1421 70.9044Z" fill="white"/>
<path d="M40.8906 77.8086V68.8223H42.5261V77.8086H40.8906Z" fill="white"/>
<path d="M49.5039 77.8086L48.8497 75.6168H45.7968L45.0336 77.8086H43.2891L46.56 68.8223H48.0865L51.3574 77.8086H49.5039ZM47.3233 70.9045L46.342 74.1921H48.4136L47.3233 70.9045Z" fill="white"/>
<path d="M54.955 70.3563V77.8084H53.2105V70.3563H50.5938V68.9316H57.5718V70.3563H54.955Z" fill="white"/>
<path d="M58.9844 77.8086V68.8223H60.7289V77.8086H58.9844Z" fill="white"/>
<path d="M66.1806 78.0277C63.4548 78.0277 61.4922 76.0551 61.4922 73.425C61.4922 70.6853 63.4548 68.8223 66.1806 68.8223C69.0154 68.8223 70.869 70.6853 70.869 73.425C70.869 76.0551 68.9064 78.0277 66.1806 78.0277ZM66.1806 70.2469C64.5451 70.2469 63.2367 71.562 63.2367 73.425C63.2367 75.288 64.4361 76.6031 66.1806 76.6031C67.8161 76.6031 69.1244 75.288 69.1244 73.425C69.0154 71.562 67.8161 70.2469 66.1806 70.2469Z" fill="white"/>
<path d="M77.7393 77.9182L73.9232 72.1099C73.9232 72.1099 73.8141 72.0003 73.7051 71.7812C73.5961 71.6716 73.5961 71.562 73.5961 71.562C73.5961 71.4524 73.487 71.4524 73.487 71.2332V77.8086H71.8516V68.8223H73.8141L77.5212 74.7401C77.5212 74.7401 77.5212 74.8497 77.6303 74.9593C77.6303 75.0688 77.7393 75.0688 77.7393 75.1784L77.8483 75.3976L77.9574 75.5072V68.8223H79.5929V77.8086H77.7393V77.9182Z" fill="white"/>
<path d="M87.9853 78.0277C85.2595 78.0277 83.2969 76.0551 83.2969 73.425C83.2969 70.6853 85.2595 68.8223 87.9853 68.8223C90.8201 68.8223 92.6736 70.6853 92.6736 73.425C92.6736 76.0551 90.7111 78.0277 87.9853 78.0277ZM87.9853 70.2469C86.3498 70.2469 85.0414 71.562 85.0414 73.425C85.0414 75.288 86.2407 76.6031 87.9853 76.6031C89.6207 76.6031 90.9291 75.288 90.9291 73.425C90.9291 71.562 89.6207 70.2469 87.9853 70.2469Z" fill="white"/>
<path d="M95.8383 70.3565V72.6579H99.0002V74.0825H95.8383V77.8086H94.0938V68.8223H99.6544V70.2469H95.8383V70.3565Z" fill="white"/>
<path d="M108.926 77.8086L108.272 75.6168H105.328L104.565 77.8086H102.82L106.091 68.8223H107.618L110.889 77.8086H108.926ZM106.745 70.9045L105.764 74.1921H107.836L106.745 70.9045Z" fill="white"/>
<path d="M117.535 77.3702C116.881 77.8086 116.118 78.0277 115.027 78.0277C113.937 78.0277 113.174 77.8086 112.52 77.3702C111.647 76.7127 111.32 75.9456 111.32 74.3017V68.8223H112.956V74.4113C112.956 75.7264 113.61 76.3839 115.027 76.3839C116.336 76.3839 116.99 75.7264 116.99 74.4113V68.8223H118.735V74.3017C118.735 75.9456 118.407 76.7127 117.535 77.3702Z" fill="white"/>
<path d="M126.154 71.0136C125.172 70.5753 124.409 70.3561 123.864 70.3561C123.101 70.3561 122.556 70.6849 122.556 71.2328C122.556 71.5616 122.774 71.8903 123.428 72.2191C124.736 72.9862 125.718 73.5342 126.045 73.9725C126.372 74.3013 126.699 74.9588 126.699 75.6164C126.699 77.2602 125.5 78.1369 123.537 78.1369C123.319 78.1369 122.992 78.1369 122.774 78.1369C122.12 78.0273 121.792 77.9177 120.92 77.4794C120.811 77.4794 120.593 77.3698 120.375 77.2602L121.138 75.7259C121.792 76.0547 122.01 76.1643 122.447 76.3835C122.883 76.4931 123.428 76.6027 123.755 76.6027C124.518 76.6027 125.063 76.2739 125.063 75.7259C125.063 75.3972 124.845 75.0684 124.3 74.7396L122.883 73.9725C121.356 73.0958 120.811 72.4383 120.811 71.452C120.811 71.0136 120.92 70.5753 121.138 70.2465C121.247 70.0273 121.465 69.8081 121.792 69.589C122.447 69.1506 122.992 69.041 124.082 69.041C124.627 69.041 125.172 69.1506 125.718 69.2602C126.154 69.3698 126.372 69.4794 127.026 69.8081L126.154 71.0136Z" fill="white"/>
<path d="M132.15 70.3563V77.8084H130.406V70.3563H127.789V68.9316H134.767V70.3563H132.15Z" fill="white"/>
<path d="M140.759 77.8086L138.687 74.1921H137.815V77.8086H136.07V68.8223H139.014C140.323 68.8223 140.868 68.9319 141.413 69.4798C141.849 69.9182 142.176 70.5757 142.176 71.4524C142.176 72.1099 142.067 72.6579 141.74 73.0962C141.413 73.5346 141.086 73.7538 140.323 73.973L142.503 77.8086H140.759ZM139.014 70.3565H137.924V72.7675H139.014C140.105 72.7675 140.541 72.4387 140.541 71.4524C140.541 70.6853 140.105 70.3565 139.014 70.3565Z" fill="white"/>
<path d="M149.7 77.8086L149.045 75.6168H146.101L145.338 77.8086H143.594L146.865 68.8223H148.391L151.662 77.8086H149.7ZM147.519 70.9045L146.538 74.1921H148.609L147.519 70.9045Z" fill="white"/>
<path d="M152.32 77.8086V68.8223H154.065V76.2743H157.663V77.8086H152.32Z" fill="white"/>
<path d="M158.641 77.8086V68.8223H160.385V77.8086H158.641Z" fill="white"/>
<path d="M167.254 77.8086L166.6 75.6168H163.547L162.784 77.8086H161.039L164.31 68.8223H165.836L169.107 77.8086H167.254ZM165.073 70.9045L164.092 74.1921H166.164L165.073 70.9045Z" fill="white"/>
<path d="M84.6102 3.50693C84.8283 3.50693 85.1554 3.50693 85.3735 3.50693C107.071 3.50693 124.407 6.68501 124.407 9.86309C124.407 13.0412 107.071 15.0138 85.3735 15.0138C63.676 15.0138 46.0128 12.0549 46.0128 8.87679C46.0128 7.01378 51.7915 5.26035 60.8412 4.27405V3.72611C49.8289 4.822 42.6328 7.12337 42.6328 9.31515C42.6328 13.0412 61.6044 16.2193 84.7193 16.2193C107.834 16.2193 126.806 13.3699 126.806 9.64392C126.806 5.91789 107.834 2.95898 84.7193 2.95898C84.6102 2.95898 84.6102 2.95898 84.5012 2.95898V3.50693H84.6102Z" fill="white"/>
<path d="M84.2885 1.97254C84.7246 1.97254 85.1607 1.97254 85.5969 1.97254C115.363 1.97254 139.241 6.3561 139.241 10.8492C139.241 15.2328 115.363 17.9725 85.5969 17.9725C55.831 17.9725 31.4078 13.9177 31.4078 9.42459C31.4078 6.90404 39.4762 4.38349 51.9059 3.06843V2.52048C36.8594 4.05473 26.9375 7.12322 26.9375 10.1917C26.9375 15.1232 52.9962 19.5068 84.7246 19.5068C116.453 19.5068 142.512 15.5616 142.512 10.6301C142.512 5.69856 116.453 1.53418 84.7246 1.53418C84.6156 1.53418 84.3975 1.53418 84.2885 1.53418V1.97254Z" fill="white"/>
<path d="M83.9579 0.547945C84.394 0.547945 84.9392 0.547945 85.3753 0.547945C123.428 0.547945 153.957 6.24658 153.957 11.8356C153.957 17.4247 123.428 21.0411 85.3753 21.0411C47.323 21.0411 16.1398 15.7808 16.1398 10.1918C16.1398 6.90411 26.4979 3.72603 42.6346 1.9726V1.42466C23.554 3.28767 10.9062 7.12329 10.9062 10.9589C10.9062 17.2055 44.0521 22.7945 84.503 22.7945C124.954 22.7945 158.1 17.863 158.1 11.5068C158.1 5.26027 124.954 0 84.503 0C84.285 0 84.1759 0 83.9579 0V0.547945Z" fill="white"/>
<path d="M84.8274 2.95898H84.6094V3.50693C84.8274 3.50693 85.1545 3.50693 85.3726 3.50693C107.07 3.50693 124.406 6.68501 124.406 9.86309C124.406 11.5069 122.007 12.7124 117.973 13.8083C123.643 12.7124 127.023 11.2878 127.023 9.7535C126.914 6.02748 107.942 2.95898 84.8274 2.95898Z" fill="white"/>
<path d="M84.8268 1.4248C84.7177 1.4248 84.4997 1.4248 84.3906 1.4248V1.97275C84.8268 1.97275 85.2629 1.97275 85.699 1.97275C115.465 1.97275 139.343 6.35631 139.343 10.8495C139.343 10.9591 139.343 10.9591 139.343 11.0686C139.343 13.0412 135.963 14.6851 130.184 16.1097C138.034 14.5755 142.614 12.7125 142.614 10.5207C142.505 5.58919 116.555 1.4248 84.8268 1.4248Z" fill="white"/>
<path d="M84.5061 0C84.288 0 84.179 0 83.9609 0V0.547945C84.3971 0.547945 84.9422 0.547945 85.3784 0.547945C123.431 0.547945 153.96 6.24658 153.96 11.8356C153.96 11.9452 153.96 11.9452 153.96 12.0548C153.96 14.3562 150.471 16.4384 144.256 18.0822C152.978 16.2192 158.103 13.9178 158.103 11.5068C158.103 5.26027 124.957 0 84.5061 0Z" fill="white"/>
</g>
<defs>
<clipPath id="clip0_576_7407">
<rect width="169" height="80" fill="white"/>
</clipPath>
</defs>
</svg>
