<svg width="36" height="26" viewBox="0 0 36 26" fill="none" xmlns="http://www.w3.org/2000/svg">
<path d="M34.25 17.9995H29.25V8.83389C30.4516 10.3163 32.0111 11.4681 33.7812 12.1808C34.0872 12.2987 34.4273 12.2916 34.7281 12.1611C35.029 12.0306 35.2665 11.7871 35.3894 11.4832C35.5124 11.1792 35.511 10.8391 35.3856 10.5361C35.2601 10.2331 35.0206 9.99161 34.7188 9.86357C33.0999 9.21371 31.7132 8.09299 30.7382 6.64641C29.7633 5.19983 29.2448 3.49397 29.25 1.74951C29.25 1.41799 29.1183 1.10005 28.8839 0.865628C28.6495 0.631208 28.3315 0.499512 28 0.499512C27.6685 0.499512 27.3505 0.631208 27.1161 0.865628C26.8817 1.10005 26.75 1.41799 26.75 1.74951C26.75 4.07016 25.8281 6.29575 24.1872 7.9367C22.5462 9.57764 20.3206 10.4995 18 10.4995C15.6794 10.4995 13.4538 9.57764 11.8128 7.9367C10.1719 6.29575 9.25 4.07016 9.25 1.74951C9.25 1.41799 9.1183 1.10005 8.88388 0.865628C8.64946 0.631208 8.33152 0.499512 8 0.499512C7.66848 0.499512 7.35054 0.631208 7.11612 0.865628C6.8817 1.10005 6.75 1.41799 6.75 1.74951C6.75516 3.49397 6.23672 5.19983 5.26175 6.64641C4.28678 8.09299 2.90015 9.21371 1.28125 9.86357C0.979366 9.99161 0.73988 10.2331 0.61442 10.5361C0.48896 10.8391 0.487572 11.1792 0.610556 11.4832C0.733541 11.7871 0.971047 12.0306 1.27188 12.1611C1.57271 12.2916 1.91277 12.2987 2.21875 12.1808C3.98893 11.4681 5.54839 10.3163 6.75 8.83389V17.9995H1.75C1.41848 17.9995 1.10054 18.1312 0.866116 18.3656C0.631696 18.6 0.5 18.918 0.5 19.2495C0.5 19.581 0.631696 19.899 0.866116 20.1334C1.10054 20.3678 1.41848 20.4995 1.75 20.4995H6.75V24.2495C6.75 24.581 6.8817 24.899 7.11612 25.1334C7.35054 25.3678 7.66848 25.4995 8 25.4995C8.33152 25.4995 8.64946 25.3678 8.88388 25.1334C9.1183 24.899 9.25 24.581 9.25 24.2495V20.4995H26.75V24.2495C26.75 24.581 26.8817 24.899 27.1161 25.1334C27.3505 25.3678 27.6685 25.4995 28 25.4995C28.3315 25.4995 28.6495 25.3678 28.8839 25.1334C29.1183 24.899 29.25 24.581 29.25 24.2495V20.4995H34.25C34.5815 20.4995 34.8995 20.3678 35.1339 20.1334C35.3683 19.899 35.5 19.581 35.5 19.2495C35.5 18.918 35.3683 18.6 35.1339 18.3656C34.8995 18.1312 34.5815 17.9995 34.25 17.9995ZM20.5 12.7183V17.9995H15.5V12.7183C17.1456 13.0933 18.8544 13.0933 20.5 12.7183ZM9.25 8.81201C10.27 10.0726 11.5488 11.0994 13 11.8229V17.9995H9.25V8.81201ZM23 17.9995V11.8245C24.4512 11.1009 25.73 10.0741 26.75 8.81357V17.9995H23Z" fill="#012555"/>
</svg>
