<svg width="40" height="40" viewBox="0 0 40 40" fill="none" xmlns="http://www.w3.org/2000/svg">
<path d="M27.1875 7.4601C25.2575 5.23109 23.0852 3.22393 20.7109 1.47572C20.5008 1.32849 20.2504 1.24951 19.9937 1.24951C19.7371 1.24951 19.4867 1.32849 19.2766 1.47572C16.9066 3.22466 14.7386 5.23179 12.8125 7.4601C8.51719 12.3929 6.25 17.5929 6.25 22.4992C6.25 26.1459 7.69866 29.6433 10.2773 32.2219C12.8559 34.8005 16.3533 36.2492 20 36.2492C23.6467 36.2492 27.1441 34.8005 29.7227 32.2219C32.3013 29.6433 33.75 26.1459 33.75 22.4992C33.75 17.5929 31.4828 12.3929 27.1875 7.4601ZM20 33.7492C17.0173 33.7459 14.1578 32.5595 12.0487 30.4505C9.93964 28.3414 8.75331 25.4818 8.75 22.4992C8.75 13.557 17.4172 6.09291 20 4.06166C22.5828 6.09291 31.25 13.5538 31.25 22.4992C31.2467 25.4818 30.0604 28.3414 27.9513 30.4505C25.8422 32.5595 22.9827 33.7459 20 33.7492ZM28.7328 23.9585C28.4087 25.769 27.5376 27.4367 26.2369 28.7371C24.9363 30.0375 23.2684 30.9082 21.4578 31.232C21.3891 31.243 21.3196 31.2487 21.25 31.2492C20.9364 31.2491 20.6344 31.1312 20.4037 30.9188C20.173 30.7064 20.0306 30.4151 20.0046 30.1026C19.9787 29.7902 20.0711 29.4794 20.2636 29.2318C20.456 28.9843 20.7345 28.8182 21.0437 28.7663C23.6328 28.3304 25.8297 26.1335 26.2687 23.5398C26.3243 23.2128 26.5074 22.9213 26.7779 22.7294C27.0483 22.5374 27.384 22.4608 27.7109 22.5163C28.0379 22.5719 28.3294 22.755 28.5213 23.0255C28.7133 23.2959 28.7899 23.6316 28.7344 23.9585H28.7328Z" fill="#012555"/>
</svg>
