<svg width="36" height="30" viewBox="0 0 36 30" fill="none" xmlns="http://www.w3.org/2000/svg">
<path d="M34.6562 5.88389L31.6344 2.86514C31.3998 2.63059 31.0817 2.49882 30.75 2.49882C30.4183 2.49882 30.1002 2.63059 29.8656 2.86514C29.6311 3.09969 29.4993 3.41781 29.4993 3.74951C29.4993 4.08122 29.6311 4.39934 29.8656 4.63389L32.8844 7.65576C33.1176 7.88923 33.249 8.20545 33.25 8.53545V21.2495C33.25 21.581 33.1183 21.899 32.8839 22.1334C32.6495 22.3678 32.3315 22.4995 32 22.4995C31.6685 22.4995 31.3505 22.3678 31.1161 22.1334C30.8817 21.899 30.75 21.581 30.75 21.2495V14.9995C30.75 14.0049 30.3549 13.0511 29.6517 12.3479C28.9484 11.6446 27.9946 11.2495 27 11.2495H24.5V3.74951C24.5 2.75495 24.1049 1.80112 23.4017 1.09786C22.6984 0.3946 21.7446 -0.000488281 20.75 -0.000488281H8.25C7.25544 -0.000488281 6.30161 0.3946 5.59835 1.09786C4.89509 1.80112 4.5 2.75495 4.5 3.74951V27.4995H2C1.66848 27.4995 1.35054 27.6312 1.11612 27.8656C0.881696 28.1 0.75 28.418 0.75 28.7495C0.75 29.081 0.881696 29.399 1.11612 29.6334C1.35054 29.8678 1.66848 29.9995 2 29.9995H27C27.3315 29.9995 27.6495 29.8678 27.8839 29.6334C28.1183 29.399 28.25 29.081 28.25 28.7495C28.25 28.418 28.1183 28.1 27.8839 27.8656C27.6495 27.6312 27.3315 27.4995 27 27.4995H24.5V13.7495H27C27.3315 13.7495 27.6495 13.8812 27.8839 14.1156C28.1183 14.35 28.25 14.668 28.25 14.9995V21.2495C28.25 22.2441 28.6451 23.1979 29.3483 23.9012C30.0516 24.6044 31.0054 24.9995 32 24.9995C32.9946 24.9995 33.9484 24.6044 34.6517 23.9012C35.3549 23.1979 35.75 22.2441 35.75 21.2495V8.53545C35.7519 8.04314 35.6562 7.55534 35.4685 7.10022C35.2807 6.64511 35.0047 6.2317 34.6562 5.88389ZM7 27.4995V3.74951C7 3.41799 7.1317 3.10005 7.36612 2.86563C7.60054 2.63121 7.91848 2.49951 8.25 2.49951H20.75C21.0815 2.49951 21.3995 2.63121 21.6339 2.86563C21.8683 3.10005 22 3.41799 22 3.74951V27.4995H7ZM19.5 12.4995C19.5 12.831 19.3683 13.149 19.1339 13.3834C18.8995 13.6178 18.5815 13.7495 18.25 13.7495H10.75C10.4185 13.7495 10.1005 13.6178 9.86612 13.3834C9.6317 13.149 9.5 12.831 9.5 12.4995C9.5 12.168 9.6317 11.85 9.86612 11.6156C10.1005 11.3812 10.4185 11.2495 10.75 11.2495H18.25C18.5815 11.2495 18.8995 11.3812 19.1339 11.6156C19.3683 11.85 19.5 12.168 19.5 12.4995Z" fill="#012555"/>
</svg>
