<svg width="34" height="36" viewBox="0 0 34 36" fill="none" xmlns="http://www.w3.org/2000/svg">
<path d="M31.5406 15.2792L29.5 14.5979V6.74951C29.5 6.08647 29.2366 5.45059 28.7678 4.98174C28.2989 4.5129 27.663 4.24951 27 4.24951H18.25V1.74951C18.25 1.41799 18.1183 1.10005 17.8839 0.865628C17.6495 0.631208 17.3315 0.499512 17 0.499512C16.6685 0.499512 16.3505 0.631208 16.1161 0.865628C15.8817 1.10005 15.75 1.41799 15.75 1.74951V4.24951H7C6.33696 4.24951 5.70107 4.5129 5.23223 4.98174C4.76339 5.45059 4.5 6.08647 4.5 6.74951V14.5979L2.45937 15.2792C1.96158 15.4451 1.52862 15.7635 1.22182 16.1892C0.91503 16.6149 0.749961 17.1263 0.75 17.6511V21.7495C0.75 31.3651 16.0453 35.2995 16.6969 35.462C16.8959 35.5118 17.1041 35.5118 17.3031 35.462C17.9547 35.2995 33.25 31.3651 33.25 21.7495V17.6511C33.25 17.1263 33.085 16.6149 32.7782 16.1892C32.4714 15.7635 32.0384 15.4451 31.5406 15.2792ZM7 6.74951H27V13.7651L17.3953 10.5636C17.1387 10.478 16.8613 10.478 16.6047 10.5636L7 13.7651V6.74951ZM30.75 21.7495C30.75 25.6417 27.05 28.4683 23.9453 30.1604C21.7347 31.3334 19.4068 32.2704 17 32.9558C14.6077 32.2776 12.2934 31.3496 10.0953 30.187C4.4375 27.1167 3.25 23.9042 3.25 21.7495V17.6511L15.75 13.4839V24.2495C15.75 24.581 15.8817 24.899 16.1161 25.1334C16.3505 25.3678 16.6685 25.4995 17 25.4995C17.3315 25.4995 17.6495 25.3678 17.8839 25.1334C18.1183 24.899 18.25 24.581 18.25 24.2495V13.4839L30.75 17.6511V21.7495Z" fill="#012555"/>
</svg>
