<svg width="40" height="40" viewBox="0 0 40 40" fill="none" xmlns="http://www.w3.org/2000/svg">
<path d="M20 3.74951C16.7861 3.74951 13.6443 4.70256 10.972 6.48813C8.29969 8.2737 6.21689 10.8116 4.98696 13.7809C3.75704 16.7502 3.43524 20.0175 4.06225 23.1697C4.68926 26.3219 6.23692 29.2174 8.50952 31.49C10.7821 33.7626 13.6776 35.3103 16.8298 35.9373C19.982 36.5643 23.2493 36.2425 26.2186 35.0126C29.1879 33.7826 31.7258 31.6998 33.5114 29.0275C35.297 26.3552 36.25 23.2135 36.25 19.9995C36.2455 15.6911 34.5319 11.5605 31.4855 8.51405C28.439 5.46757 24.3084 3.75406 20 3.74951ZM33.75 19.9995C33.7514 21.7635 33.4118 23.5112 32.75 25.1464L25.7656 20.8511C25.4687 20.6678 25.1365 20.5491 24.7906 20.5026L21.225 20.0214C20.7337 19.9573 20.2344 20.0397 19.7897 20.2582C19.3449 20.4766 18.9746 20.8215 18.725 21.2495H17.3625L16.7688 20.0214C16.6046 19.6794 16.3644 19.3795 16.0665 19.1447C15.7686 18.9099 15.4209 18.7464 15.05 18.6667L13.8 18.3964L15.0219 16.2495H17.6328C18.0553 16.2487 18.4708 16.1412 18.8406 15.937L20.7547 14.8808C20.9229 14.787 21.0801 14.6749 21.2234 14.5464L25.4281 10.7433C25.8497 10.3655 26.1299 9.85526 26.2225 9.29681C26.3151 8.73836 26.2146 8.16503 25.9375 7.67139L25.8813 7.56982C28.2341 8.68544 30.2222 10.4454 31.615 12.6455C33.0078 14.8456 33.7481 17.3956 33.75 19.9995ZM22.3922 6.45889L23.75 8.89014L19.5453 12.6933L17.6328 13.7495H15.0219C14.5824 13.7489 14.1505 13.8641 13.7698 14.0835C13.389 14.303 13.0729 14.6189 12.8531 14.9995L11.4891 17.3792L9.90313 13.1542L11.6125 9.11201C13.1255 7.94294 14.8661 7.10279 16.7226 6.64538C18.5792 6.18797 20.5108 6.12338 22.3938 6.45576L22.3922 6.45889ZM6.25001 19.9995C6.24792 17.9558 6.70388 15.9376 7.58438 14.0933L9.35626 18.8229C9.50392 19.2146 9.74753 19.5628 10.0647 19.8358C10.382 20.1088 10.7626 20.2978 11.1719 20.3854L14.5203 21.1058L15.1156 22.3433C15.3222 22.7642 15.6424 23.1189 16.04 23.3674C16.4376 23.6159 16.8968 23.7482 17.3656 23.7495H17.5969L16.4672 26.2854C16.2681 26.732 16.2044 27.2271 16.2838 27.7095C16.3632 28.1919 16.5824 28.6404 16.9141 28.9995L16.9359 29.0214L20 32.1776L19.6969 33.7401C16.106 33.6566 12.6899 32.1729 10.1777 29.6058C7.66545 27.0387 6.25597 23.5914 6.25001 19.9995ZM22.2781 33.5589L22.4547 32.6511C22.5273 32.2654 22.5085 31.8681 22.4 31.4909C22.2915 31.1138 22.0962 30.7673 21.8297 30.4792C21.822 30.4723 21.8147 30.465 21.8078 30.4573L18.75 27.3026L20.8906 22.4995L24.4563 22.9808L31.6 27.3745C30.565 28.9999 29.2006 30.3901 27.595 31.4553C25.9893 32.5206 24.178 33.2372 22.2781 33.5589Z" fill="#012555"/>
</svg>
