<svg width="28" height="38" viewBox="0 0 28 38" fill="none" xmlns="http://www.w3.org/2000/svg">
<path d="M27.7168 17.4632C27.6694 17.2628 27.5733 17.0773 27.4371 16.923C27.3008 16.7687 27.1285 16.6505 26.9355 16.5788L17.9339 13.2022L20.2246 1.74442C20.2764 1.47821 20.2403 1.20234 20.1216 0.958456C20.003 0.714572 19.8082 0.515901 19.5667 0.392424C19.3252 0.268947 19.0501 0.227364 18.7829 0.273949C18.5157 0.320533 18.271 0.452759 18.0855 0.650672L0.585501 19.4007C0.443368 19.5504 0.340547 19.7331 0.286225 19.9323C0.231903 20.1315 0.227771 20.341 0.274198 20.5422C0.320626 20.7434 0.416167 20.93 0.552286 21.0852C0.688405 21.2405 0.860863 21.3596 1.05425 21.4319L10.0589 24.8085L7.77456 36.2538C7.72269 36.52 7.75882 36.7959 7.87749 37.0398C7.99616 37.2837 8.19093 37.4823 8.43242 37.6058C8.6739 37.7293 8.949 37.7709 9.21619 37.7243C9.48338 37.6777 9.72817 37.5455 9.91363 37.3476L27.4136 18.5975C27.5532 18.4478 27.6538 18.266 27.7067 18.0682C27.7595 17.8704 27.763 17.6626 27.7168 17.4632ZM11.0886 32.4366L12.7246 24.2522C12.7831 23.962 12.7367 23.6603 12.5936 23.4011C12.4506 23.1418 12.2201 22.9418 11.9433 22.8366L3.68706 19.7351L16.9089 5.56942L15.2746 13.7538C15.216 14.0441 15.2624 14.3457 15.4055 14.6049C15.5486 14.8642 15.779 15.0642 16.0558 15.1694L24.3058 18.2632L11.0886 32.4366Z" fill="#012555"/>
</svg>
