<svg width="38" height="35" viewBox="0 0 38 35" fill="none" xmlns="http://www.w3.org/2000/svg">
<path d="M22.75 4.99951H26.5C26.8315 4.99951 27.1495 4.86782 27.3839 4.6334C27.6183 4.39897 27.75 4.08103 27.75 3.74951C27.75 3.41799 27.8817 3.10005 28.1161 2.86563C28.3505 2.63121 28.6685 2.49951 29 2.49951C29.3315 2.49951 29.6495 2.63121 29.8839 2.86563C30.1183 3.10005 30.25 3.41799 30.25 3.74951C30.25 4.74407 29.8549 5.6979 29.1517 6.40116C28.4484 7.10442 27.4946 7.49951 26.5 7.49951H22.75C22.4185 7.49951 22.1005 7.63121 21.8661 7.86563C21.6317 8.10005 21.5 8.41799 21.5 8.74951C21.5 9.08103 21.3683 9.39897 21.1339 9.63339C20.8995 9.86782 20.5815 9.99951 20.25 9.99951C19.9185 9.99951 19.6005 9.86782 19.3661 9.63339C19.1317 9.39897 19 9.08103 19 8.74951C19 7.75495 19.3951 6.80112 20.0983 6.09786C20.8016 5.3946 21.7554 4.99951 22.75 4.99951ZM15.25 9.99951C15.5815 9.99951 15.8995 9.86782 16.1339 9.63339C16.3683 9.39897 16.5 9.08103 16.5 8.74951C16.5 7.09191 17.1585 5.5022 18.3306 4.33009C19.5027 3.15799 21.0924 2.49951 22.75 2.49951H24C24.3315 2.49951 24.6495 2.36782 24.8839 2.1334C25.1183 1.89897 25.25 1.58103 25.25 1.24951C25.25 0.917991 25.1183 0.600049 24.8839 0.365628C24.6495 0.131208 24.3315 -0.000488281 24 -0.000488281L22.75 -0.000488281C20.4301 0.00199332 18.206 0.924663 16.5656 2.56507C14.9252 4.20547 14.0025 6.42963 14 8.74951C14 9.08103 14.1317 9.39897 14.3661 9.63339C14.6005 9.86782 14.9185 9.99951 15.25 9.99951ZM37.75 33.7495C37.75 34.081 37.6183 34.399 37.3839 34.6334C37.1495 34.8678 36.8315 34.9995 36.5 34.9995H1.5C1.16848 34.9995 0.850537 34.8678 0.616116 34.6334C0.381696 34.399 0.25 34.081 0.25 33.7495C0.25 33.418 0.381696 33.1 0.616116 32.8656C0.850537 32.6312 1.16848 32.4995 1.5 32.4995H4.11563C6.26719 28.1511 8.72188 21.7667 8.97813 14.8964C9.00127 14.2505 9.27507 13.639 9.74148 13.1915C10.2079 12.7441 10.8302 12.4958 11.4766 12.4995H25.2781C25.9221 12.4989 26.5415 12.7468 27.0073 13.1915C27.473 13.6363 27.7491 14.2437 27.7781 14.887C28.1062 22.362 31.5031 29.3198 33.2922 32.4995H36.5C36.8315 32.4995 37.1495 32.6312 37.3839 32.8656C37.6183 33.1 37.75 33.418 37.75 33.7495ZM25.2781 14.9995H22.7781C23.0547 21.8308 25.4953 28.1745 27.6359 32.4995H30.4484C28.4813 28.762 25.5906 22.1308 25.2781 14.9995ZM6.89062 32.4995H24.8594C22.75 27.9823 20.5266 21.7323 20.2734 14.9995C20.2212 14.9999 20.169 14.9968 20.1172 14.9901L11.4766 14.9995C11.225 21.7276 9.00938 27.9792 6.89062 32.4995Z" fill="#012555"/>
</svg>
