<svg width="36" height="34" viewBox="0 0 36 34" fill="none" xmlns="http://www.w3.org/2000/svg">
<path d="M2.99805 15.2495C2.99805 14.918 3.12975 14.6 3.36417 14.3656C3.59859 14.1312 3.91653 13.9995 4.24805 13.9995H6.74805C7.07958 13.9995 7.39752 14.1312 7.63194 14.3656C7.86636 14.6 7.99805 14.918 7.99805 15.2495C7.99805 15.581 7.86636 15.899 7.63194 16.1334C7.39752 16.3678 7.07958 16.4995 6.74805 16.4995H4.24805C3.91653 16.4995 3.59859 16.3678 3.36417 16.1334C3.12975 15.899 2.99805 15.581 2.99805 15.2495ZM9.15899 8.1792C9.39354 8.41375 9.71166 8.54552 10.0434 8.54552C10.3751 8.54552 10.6932 8.41375 10.9277 8.1792C11.1623 7.94465 11.2941 7.62653 11.2941 7.29482C11.2941 6.96312 11.1623 6.645 10.9277 6.41045L9.15899 4.64326C8.92266 4.41874 8.60798 4.29541 8.28203 4.29959C7.95607 4.30376 7.64465 4.4351 7.41414 4.6656C7.18364 4.8961 7.0523 5.20753 7.04813 5.53348C7.04396 5.85943 7.16728 6.17412 7.3918 6.41045L9.15899 8.1792ZM17.9981 5.24951C18.3296 5.24951 18.6475 5.11782 18.8819 4.88339C19.1164 4.64897 19.2481 4.33103 19.2481 3.99951V1.49951C19.2481 1.16799 19.1164 0.850049 18.8819 0.615628C18.6475 0.381208 18.3296 0.249512 17.9981 0.249512C17.6665 0.249512 17.3486 0.381208 17.1142 0.615628C16.8798 0.850049 16.7481 1.16799 16.7481 1.49951V3.99951C16.7481 4.33103 16.8798 4.64897 17.1142 4.88339C17.3486 5.11782 17.6665 5.24951 17.9981 5.24951ZM25.9527 8.54482C26.1169 8.54495 26.2796 8.51273 26.4313 8.45C26.583 8.38726 26.7209 8.29524 26.8371 8.1792L28.6043 6.41045C28.8288 6.17412 28.9522 5.85943 28.948 5.53348C28.9438 5.20753 28.8125 4.8961 28.582 4.6656C28.3515 4.4351 28.04 4.30376 27.7141 4.29959C27.3881 4.29541 27.0734 4.41874 26.8371 4.64326L25.0684 6.41045C24.8934 6.58527 24.7741 6.80808 24.7258 7.05069C24.6775 7.2933 24.7023 7.54478 24.797 7.77331C24.8917 8.00184 25.052 8.19714 25.2578 8.33447C25.4635 8.47181 25.7054 8.54502 25.9527 8.54482ZM27.9981 15.2495C27.9981 15.581 28.1298 15.899 28.3642 16.1334C28.5986 16.3678 28.9165 16.4995 29.2481 16.4995H31.7481C32.0796 16.4995 32.3975 16.3678 32.6319 16.1334C32.8664 15.899 32.9981 15.581 32.9981 15.2495C32.9981 14.918 32.8664 14.6 32.6319 14.3656C32.3975 14.1312 32.0796 13.9995 31.7481 13.9995H29.2481C28.9165 13.9995 28.5986 14.1312 28.3642 14.3656C28.1298 14.6 27.9981 14.918 27.9981 15.2495ZM11.7481 16.4995C12.0796 16.4995 12.3975 16.3678 12.6319 16.1334C12.8664 15.899 12.9981 15.581 12.9981 15.2495C12.9981 13.9234 13.5248 12.6517 14.4625 11.714C15.4002 10.7763 16.672 10.2495 17.9981 10.2495C19.3241 10.2495 20.5959 10.7763 21.5336 11.714C22.4713 12.6517 22.9981 13.9234 22.9981 15.2495C22.9981 15.581 23.1298 15.899 23.3642 16.1334C23.5986 16.3678 23.9165 16.4995 24.2481 16.4995C24.5796 16.4995 24.8975 16.3678 25.1319 16.1334C25.3664 15.899 25.4981 15.581 25.4981 15.2495C25.4981 13.2604 24.7079 11.3527 23.3014 9.94621C21.8948 8.53969 19.9872 7.74951 17.9981 7.74951C16.0089 7.74951 14.1013 8.53969 12.6948 9.94621C11.2882 11.3527 10.4981 13.2604 10.4981 15.2495C10.4981 15.581 10.6298 15.899 10.8642 16.1334C11.0986 16.3678 11.4165 16.4995 11.7481 16.4995ZM35.3277 33.3745C35.2183 33.5641 35.0609 33.7216 34.8714 33.8313C34.682 33.941 34.467 33.999 34.2481 33.9995H1.74805C1.52905 34.0005 1.31362 33.944 1.12334 33.8356C0.933061 33.7272 0.774605 33.5707 0.663842 33.3817C0.553079 33.1928 0.493898 32.9781 0.492224 32.7591C0.49055 32.5401 0.546443 32.3245 0.654305 32.1339L7.01212 20.8839C7.12157 20.6905 7.28062 20.5297 7.47287 20.4182C7.66512 20.3067 7.88362 20.2485 8.10587 20.2495H27.8887C28.1109 20.2485 28.3294 20.3067 28.5217 20.4182C28.7139 20.5297 28.873 20.6905 28.9824 20.8839L35.3402 32.1339C35.4463 32.3239 35.501 32.5383 35.4988 32.7559C35.4966 32.9734 35.4376 33.1867 35.3277 33.3745ZM27.1606 22.7495H23.3527L23.8965 25.2495H28.5731L27.1606 22.7495ZM21.3387 25.2495L20.7949 22.7495H15.2012L14.6574 25.2495H21.3387ZM14.1137 27.7495L13.2996 31.4995H22.6965L21.8824 27.7495H14.1137ZM7.42305 25.2495H12.0996L12.6434 22.7495H8.83556L7.42305 25.2495ZM3.89024 31.4995H10.7402L11.5559 27.7495H6.01055L3.89024 31.4995ZM32.1059 31.4995L29.9856 27.7495H24.4402L25.2559 31.4995H32.1059Z" fill="#012555"/>
</svg>
