<svg width="36" height="33" viewBox="0 0 36 33" fill="none" xmlns="http://www.w3.org/2000/svg">
<path d="M16.125 25.4995C16.125 25.831 15.9933 26.149 15.7589 26.3834C15.5245 26.6178 15.2065 26.7495 14.875 26.7495H10.5C10.1685 26.7495 9.85054 26.6178 9.61612 26.3834C9.3817 26.149 9.25 25.831 9.25 25.4995C9.25 25.168 9.3817 24.85 9.61612 24.6156C9.85054 24.3812 10.1685 24.2495 10.5 24.2495H14.875C15.2065 24.2495 15.5245 24.3812 15.7589 24.6156C15.9933 24.85 16.125 25.168 16.125 25.4995ZM25.5 24.2495H21.125C20.7935 24.2495 20.4755 24.3812 20.2411 24.6156C20.0067 24.85 19.875 25.168 19.875 25.4995C19.875 25.831 20.0067 26.149 20.2411 26.3834C20.4755 26.6178 20.7935 26.7495 21.125 26.7495H25.5C25.8315 26.7495 26.1495 26.6178 26.3839 26.3834C26.6183 26.149 26.75 25.831 26.75 25.4995C26.75 25.168 26.6183 24.85 26.3839 24.6156C26.1495 24.3812 25.8315 24.2495 25.5 24.2495ZM35.5 31.7495C35.5 32.081 35.3683 32.399 35.1339 32.6334C34.8995 32.8678 34.5815 32.9995 34.25 32.9995H1.75C1.41848 32.9995 1.10054 32.8678 0.866116 32.6334C0.631696 32.399 0.5 32.081 0.5 31.7495C0.5 31.418 0.631696 31.1 0.866116 30.8656C1.10054 30.6312 1.41848 30.4995 1.75 30.4995H3V11.7495C3 11.5174 3.06464 11.2898 3.18669 11.0923C3.30873 10.8949 3.48335 10.7353 3.69098 10.6315C3.89862 10.5277 4.13106 10.4837 4.36226 10.5046C4.59346 10.5254 4.81429 10.6102 5 10.7495L13 16.7495V11.7495C13 11.5174 13.0646 11.2898 13.1867 11.0923C13.3087 10.8949 13.4834 10.7353 13.691 10.6315C13.8986 10.5277 14.1311 10.4837 14.3623 10.5046C14.5935 10.5254 14.8143 10.6102 15 10.7495L21.0531 15.2886L22.8594 2.64639C22.9469 2.05163 23.2447 1.50795 23.6988 1.11403C24.1529 0.720118 24.7332 0.502086 25.3344 0.499512H28.1656C28.7668 0.502086 29.3471 0.720118 29.8012 1.11403C30.2553 1.50795 30.5531 2.05163 30.6406 2.64639L32.9844 19.0729C32.9844 19.0729 32.9969 19.1948 32.9969 19.2495V30.4995H34.2469C34.4113 30.4991 34.5742 30.5311 34.7262 30.5938C34.8782 30.6564 35.0164 30.7484 35.1328 30.8645C35.2492 30.9806 35.3415 31.1186 35.4046 31.2704C35.4676 31.4223 35.5 31.5851 35.5 31.7495ZM23.3344 16.9995L24.6672 17.9995H30.3094L28.1656 2.99951H25.3344L23.3344 16.9995ZM5.5 30.4995H30.5V20.4995H24.25C23.9795 20.4995 23.7164 20.4118 23.5 20.2495L21.25 18.562L15.5 14.2495V19.2495C15.5 19.4817 15.4354 19.7092 15.3133 19.9067C15.1913 20.1041 15.0166 20.2637 14.809 20.3675C14.6014 20.4714 14.3689 20.5153 14.1377 20.4945C13.9065 20.4736 13.6857 20.3888 13.5 20.2495L5.5 14.2495V30.4995Z" fill="#012555"/>
</svg>
