<svg width="40" height="40" viewBox="0 0 40 40" fill="none" xmlns="http://www.w3.org/2000/svg">
<path d="M27.1875 7.4601C25.2575 5.23109 23.0852 3.22393 20.7109 1.47572C20.5008 1.32849 20.2504 1.24951 19.9937 1.24951C19.7371 1.24951 19.4867 1.32849 19.2766 1.47572C16.9066 3.22466 14.7386 5.23179 12.8125 7.4601C8.51719 12.3929 6.25 17.5929 6.25 22.4992C6.25 26.1459 7.69866 29.6433 10.2773 32.2219C12.8559 34.8005 16.3533 36.2492 20 36.2492C23.6467 36.2492 27.1441 34.8005 29.7227 32.2219C32.3013 29.6433 33.75 26.1459 33.75 22.4992C33.75 17.5929 31.4828 12.3929 27.1875 7.4601ZM29.3484 28.7492H10.6516C10.1326 27.971 9.71268 27.1312 9.40156 26.2492H30.6047C30.2916 27.1315 29.8696 27.9713 29.3484 28.7492ZM31.25 22.4992C31.2497 22.9169 31.2257 23.3342 31.1781 23.7492H8.82187C8.77426 23.3342 8.75026 22.9169 8.75 22.4992C8.75 22.0825 8.76875 21.6658 8.80625 21.2492H31.1937C31.2312 21.6658 31.25 22.0825 31.25 22.4992ZM20 4.06166C22.2125 5.79604 28.8844 11.521 30.7562 18.7492H9.24375C11.1156 11.5242 17.7875 5.79916 20 4.06166ZM12.9391 31.2492H27.0609C25.0631 32.8665 22.5705 33.749 20 33.749C17.4295 33.749 14.9369 32.8665 12.9391 31.2492Z" fill="#012555"/>
</svg>
