<?xml version="1.0" encoding="UTF-8"?>
<svg id="Layer_2" data-name="Layer 2" xmlns="http://www.w3.org/2000/svg" version="1.1" viewBox="0 0 1486.1 85.1">
  <defs>
    <style>
      .cls-1 {
        fill: #fff;
        stroke-width: 0px;
      }
    </style>
  </defs>
  <path class="cls-1" d="M91,0C90.5,47.1,50,85.1,0,85.1h109.9c0-41.3,37.3-75.1,83.8-75.1s83.8,33.8,83.8,75.1h26V0H91Z"/>
  <path class="cls-1" d="M749.2,0h-12.2c-6.1,47.7-51.4,85.1-106.8,85.1h225.8C800.6,85.1,755.2,47.7,749.2,0Z"/>
  <path class="cls-1" d="M410.3,0c-6.1,47.7-51.4,85.1-106.8,85.1h217.1c-40.6,0-74.4-29.4-81.9-68.4h163.9c-7.6,39-41.4,68.4-81.9,68.4h109.6V0h-219.8Z"/>
  <rect class="cls-1" x="1486.1" y="0" width="0" height="85.1"/>
  <path class="cls-1" d="M1075.8,0h-219.8v85.1h109.6c-40.6,0-74.4-29.4-81.9-68.4h163.9c-7.6,39-41.4,68.4-81.9,68.4h217.1C1127.2,85.1,1081.9,47.7,1075.8,0Z"/>
  <path class="cls-1" d="M1395.1,0h-212.5v85.1h26c0-41.3,37.3-75.1,83.8-75.1s83.8,33.8,83.8,75.1h109.9C1436.1,85.1,1395.6,47.1,1395.1,0Z"/>
</svg>