<?xml version="1.0" encoding="UTF-8"?>
<svg id="Layer_2" data-name="Layer 2" xmlns="http://www.w3.org/2000/svg" version="1.1" viewBox="0 0 1486.1 85.1">
  <defs>
    <style>
      .cls-1 {
        fill: #fff;
        stroke-width: 0px;
      }
    </style>
  </defs>
  <path class="cls-1" d="M737,85.1h12.2C755.3,37.4,800.7,0,856,0h-225.8C685.6,0,730.9,37.4,737,85.1Z"/>
  <path class="cls-1" d="M602.6,68.4h-163.9C446.3,29.4,480.1,0,520.6,0h-217.1C359,0,404.3,37.4,410.4,85.1h219.8V0h-109.6C561.2,0,595,29.4,602.6,68.4Z"/>
  <path class="cls-1" d="M193.7,75.1C147.2,75.1,109.9,41.3,109.9,0H0C50,0,90.5,38.1,91.1,85.1h212.5V0h-26c0,41.3-37.3,75.1-83.8,75.1Z"/>
  <rect class="cls-1" x="1486.2" y="0" width="0" height="85.1"/>
  <path class="cls-1" d="M1292.5,75.1C1246,75.1,1208.7,41.3,1208.7,0h-26v85.1h212.5C1395.7,38.1,1436.2,0,1486.2,0h-109.9c0,41.3-37.3,75.1-83.8,75.1Z"/>
  <path class="cls-1" d="M1047.5,68.4h-163.9C891.2,29.4,925,0,965.6,0h-109.6v85.1h219.8C1081.9,37.4,1127.3,0,1182.6,0h-217.1C1006.1,0,1039.9,29.4,1047.5,68.4Z"/>
</svg>